<?xml version="1.0" encoding="utf-8"?>
<!-- Generator: Adobe Illustrator 14.0.0, SVG Export Plug-In . SVG Version: 6.00 Build 43363)  -->
<!DOCTYPE svg PUBLIC "-//W3C//DTD SVG 1.1//EN" "http://www.w3.org/Graphics/SVG/1.1/DTD/svg11.dtd">
<svg version="1.1" id="图层_1" xmlns="http://www.w3.org/2000/svg" xmlns:xlink="http://www.w3.org/1999/xlink" x="0px" y="0px"
	 width="150px" height="150px" viewBox="0 0 150 150" enable-background="new 0 0 150 150" xml:space="preserve">
<linearGradient id="svg_fork" gradientUnits="userSpaceOnUse" x1="78.1045" y1="73.1812" x2="150.6384" y2="0.6472">
	<stop  offset="0" style="stop-color:#3392C0"/>
	<stop  offset="0.0721" style="stop-color:#3E9AC7"/>
	<stop  offset="0.3251" style="stop-color:#5DB4DC"/>
	<stop  offset="0.5695" style="stop-color:#74C6EB"/>
	<stop  offset="0.7994" style="stop-color:#82D1F4"/>
	<stop  offset="1" style="stop-color:#87D5F7"/>
</linearGradient>
<path fill-rule="evenodd" clip-rule="evenodd" fill="url(#svg_fork)" d="M7.492,0L150,0.009v145.068L7.492,0z"/>
<path fill="#FFFFFF" d="M104.553,7.771l-2.293-2.298l-21.095,14.71l2.293,2.296l10.945-7.632c2.801,0.059,4.787,0.676,5.963,1.856
	c0.424,0.424,0.722,0.834,0.898,1.227c0.17,0.393,0.214,0.785,0.126,1.176c-0.089,0.394-0.31,0.791-0.667,1.192
	c-0.357,0.402-0.852,0.824-1.479,1.262l-9.861,6.875l2.317,2.326l9.984-6.965c3.773-2.629,4.197-5.414,1.274-8.349
	c-0.703-0.708-1.577-1.251-2.608-1.64c-1.032-0.383-2.223-0.591-3.567-0.619L104.553,7.771z"/>
<path fill="#FFFFFF" d="M102.563,41.729c1.717,0.98,3.545,1.398,5.41,1.188c0.933-0.105,1.843-0.381,2.73-0.833l-2.41-2.419
	c-0.457,0.304-0.954,0.483-1.489,0.533c-1.072,0.102-2.163-0.199-3.165-0.787c-0.76-0.446-1.938-1.349-2.477-2.718
	c-0.479-1.203-0.328-2.521,0.553-3.851c0.435-0.667,1.068-1.334,1.897-2.007l9.748,9.789l0.656-0.455
	c1.26-0.879,2.24-1.804,2.948-2.783c0.704-0.975,1.135-1.97,1.297-2.978c0.158-1.01,0.044-2.018-0.343-3.02
	c-0.387-1.008-1.043-1.974-1.979-2.908c-0.893-0.899-1.895-1.594-3.015-2.09c-1.113-0.498-2.285-0.77-3.509-0.822
	c-1.228-0.052-2.48,0.116-3.767,0.507c-1.282,0.385-2.543,1.015-3.792,1.885c-1.268,0.883-2.244,1.824-2.926,2.823
	c-1.367,1.998-1.633,4.092-0.796,6.153C99.072,39.227,101.162,40.928,102.563,41.729z M105.783,29.37
	c0.825-0.424,1.618-0.715,2.385-0.881c3.549-0.766,5.406,1.253,5.635,1.483c0.936,0.942,1.371,1.998,1.29,3.169
	c-0.085,1.168-0.76,2.35-2.027,3.54L105.783,29.37z"/>
<path fill="#FFFFFF" d="M132.332,35.663l-2.288-2.298l-21.091,14.71l2.284,2.298L132.332,35.663z"/>
<path fill="#FFFFFF" d="M138.022,41.372l-2.292-2.296l-21.095,14.708l2.292,2.298L138.022,41.372z"/>
<path fill="#FFFFFF" d="M134.684,50.885c-1.212-0.061-2.462,0.112-3.744,0.516c-2.543,0.8-5.366,2.746-6.788,4.743
	c-1.408,1.979-1.666,4.019-0.893,6.013c0.767,1.968,2.742,3.979,4.976,4.988c2.2,0.997,4.669,1.115,7.227,0.313
	c2.576-0.807,5.362-2.764,6.771-4.708c1.407-1.951,1.729-3.991,0.951-5.998c-0.384-1.006-1.043-1.974-1.972-2.91
	C139.387,52.013,137.116,51.003,134.684,50.885z M126.204,61.753c-0.413-1.248-0.093-2.593,1.017-3.982
	c0.557-0.695,1.315-1.38,2.285-2.053c1.942-1.356,3.792-2.003,5.425-2.033c1.633-0.033,3.033,0.545,4.139,1.651
	c1.083,1.089,1.511,2.354,1.183,3.689c-0.328,1.337-1.426,2.746-3.364,4.098c-0.97,0.676-1.913,1.179-2.83,1.511
	c-1.828,0.664-3.469,0.686-4.865,0.122C127.821,64.199,126.62,63.014,126.204,61.753z"/>
<path fill="#D5E48E" d="M43.545,7.761l-1.802,1.776l0.748,0.761l-5.052,4.973l2.119,2.156l5.053-4.975l1.05,1.065l1.806-1.776
	l-1.054-1.065l0.896-0.879c0.369-0.363,0.822-0.391,1.127-0.081l0.535,0.543l2.137-2.106L50.26,7.292
	c-0.73-0.741-1.482-1.139-2.256-1.194C47.23,6.04,46.523,6.33,45.882,6.961l-1.588,1.561L43.545,7.761z"/>
<path fill="#D5E48E" d="M47.96,13.743c-1.161,0.14-2.329,0.785-3.501,1.938c-1.121,1.107-1.74,2.243-1.857,3.407
	c-0.111,1.165,0.276,2.202,1.172,3.112c0.936,0.949,1.975,1.382,3.132,1.299s2.311-0.689,3.46-1.817
	c1.172-1.155,1.832-2.316,1.983-3.481s-0.262-2.241-1.234-3.23C50.171,14.014,49.118,13.603,47.96,13.743z M46.641,17.778
	c0.656-0.648,1.175-1.019,1.566-1.115c0.759-0.195,1.456,0.472,1.22,1.262c-0.118,0.387-0.49,0.892-1.121,1.515
	c-0.634,0.625-1.157,0.999-1.559,1.117c-0.402,0.114-0.745,0.031-1.021-0.249C45.182,19.755,45.491,18.911,46.641,17.778
	L46.641,17.778z"/>
<path fill="#D5E48E" d="M55.117,19.516l-6.858,6.75l2.126,2.159l3.405-3.354c1.032-1.01,1.938-1.12,2.72-0.324
	c0.221,0.221,0.435,0.488,0.649,0.796l2.126-2.091c-0.749-0.601-1.213-1.414-3.247-0.706l-0.029-0.03l1.146-1.129L55.117,19.516z"/>
<path fill="#D5E48E" d="M53.433,31.517l2.126,2.163l3.346-3.294l0.037,0.035l-1.754,4.913l2.455,2.497l1.581-5.97l5.233-0.824
	l-2.554-2.593l-3.896,0.931l-0.037-0.039l6.092-5.993l-2.13-2.16L53.433,31.517z"/>
<path fill="#D5E48E" d="M71.167,35.82l-6.858,6.75l2.13,2.163l4.15-4.087c0.549-0.538,1.135-0.619,1.519-0.234
	c0.361,0.369,0.25,0.988-0.258,1.485l-4.165,4.102l2.138,2.167l4.061-3.997c0.649-0.642,1.19-0.743,1.622-0.306
	c0.42,0.426,0.299,0.966-0.361,1.618l-4.047,3.982l2.138,2.17l4.976-4.901c1.411-1.389,1.621-2.591,0.626-3.597
	c-0.395-0.404-0.836-0.662-1.319-0.776c-0.486-0.114-1.105-0.144-1.857-0.087c0.567-0.999,0.476-1.885-0.276-2.648
	c-0.63-0.635-1.603-0.908-2.93-0.814l0.84-0.829L71.167,35.82z"/>
<path fill="#D5E48E" d="M78.601,54.342c-0.531-0.536-0.299-1.319,0.692-2.353l3.561,3.615c1.098-1.131,1.798-2.06,2.111-2.786
	c0.313-0.728,0.395-1.48,0.251-2.257c-0.145-0.779-0.469-1.417-0.966-1.927c-0.822-0.84-1.813-1.189-2.967-1.054
	c-1.149,0.136-2.271,0.737-3.354,1.804c-1.165,1.143-1.828,2.294-1.983,3.454c-0.166,1.155,0.184,2.168,1.04,3.038
	c1.371,1.392,2.992,1.504,4.875,0.334l-1.798-1.826C79.581,54.746,78.962,54.71,78.601,54.342z M81.763,49.982
	c0.346-0.098,0.663,0,0.943,0.289c0.258,0.256,0.328,0.561,0.214,0.909c-0.114,0.345-0.406,0.765-0.874,1.253l-1.548-1.574
	C80.996,50.371,81.416,50.08,81.763,49.982z"/>
<path fill="#D5E48E" d="M91.359,57.83c-1.161,0.139-2.326,0.785-3.494,1.94c-1.128,1.104-1.747,2.239-1.861,3.403
	c-0.114,1.167,0.276,2.204,1.169,3.111c0.936,0.949,1.982,1.384,3.14,1.303c1.153-0.083,2.307-0.689,3.453-1.821
	c1.176-1.151,1.831-2.313,1.986-3.475c0.147-1.165-0.266-2.243-1.238-3.232C93.57,58.103,92.516,57.692,91.359,57.83z M90.04,61.866
	c0.655-0.647,1.179-1.019,1.565-1.119c0.764-0.191,1.46,0.474,1.221,1.264c-0.118,0.389-0.487,0.894-1.121,1.515
	c-0.634,0.628-1.157,0.997-1.555,1.115c-0.402,0.12-0.745,0.037-1.024-0.249C88.584,63.843,88.89,62.999,90.04,61.866L90.04,61.866z
	"/>
<path fill="#D5E48E" d="M98.516,63.602l-6.854,6.75l2.126,2.164l4.154-4.087c0.578-0.575,1.098-0.628,1.551-0.166
	c0.174,0.173,0.236,0.391,0.195,0.645c-0.04,0.256-0.181,0.498-0.412,0.728l-4.224,4.161l2.13,2.167l5.314-5.23
	c0.545-0.535,0.833-1.099,0.877-1.692s-0.173-1.127-0.642-1.605c-0.722-0.729-1.713-0.971-2.981-0.719l-0.04-0.039l0.936-0.916
	L98.516,63.602z"/>
<path fill="#D5E48E" d="M104.692,85.286c-0.409,0.022-0.752-0.11-1.035-0.391c-0.328-0.332-0.424-0.781-0.299-1.349l-1.909-1.938
	c-0.619,0.929-0.825,1.835-0.619,2.712c0.206,0.87,0.612,1.622,1.224,2.241c0.612,0.619,1.327,1.046,2.138,1.274
	s1.577,0.185,2.303-0.117c0.727-0.31,1.379-0.752,1.957-1.319l6.351-6.251l-2.134-2.174l-0.723,0.715l-0.029-0.029
	c0.206-1.032,0.003-1.857-0.601-2.477c-0.683-0.686-1.53-0.928-2.547-0.708c-1.018,0.222-2.075,0.87-3.173,1.953
	c-1.124,1.105-1.788,2.16-2.002,3.177c-0.213,1.01,0.041,1.88,0.764,2.617c0.574,0.582,1.378,0.773,2.414,0.589l-0.974,0.959
	C105.474,85.087,105.105,85.264,104.692,85.286z M106.822,82.087c-0.571-0.582-0.231-1.488,1.018-2.72
	c0.479-0.472,0.929-0.759,1.356-0.862c0.424-0.103,0.773-0.021,1.039,0.251c0.549,0.56,0.269,1.386-0.841,2.469
	C108.237,82.367,107.383,82.654,106.822,82.087L106.822,82.087z"/>
<path fill="#D5E48E" d="M118.012,80.915c0,0.45,0.147,0.826,0.449,1.136c0.316,0.316,0.692,0.472,1.143,0.479
	c0.442,0,0.821-0.154,1.135-0.464c0.317-0.317,0.479-0.693,0.486-1.136c0-0.442-0.154-0.825-0.468-1.143
	c-0.306-0.31-0.682-0.472-1.124-0.479c-0.446,0-0.825,0.154-1.143,0.464C118.174,80.082,118.019,80.466,118.012,80.915z
	 M109.635,88.61l2.134,2.167l6.858-6.752l-2.138-2.167L109.635,88.61z"/>
<path fill="#D5E48E" d="M120.569,86.001l-0.808-0.818l-1.787,1.762l0.803,0.818l-5.063,4.99l2.123,2.152l5.049-4.969l0.841,0.855
	l1.806-1.776l-0.826-0.84l1.821-1.799l-2.131-2.175L120.569,86.001z"/>
<path fill="#D5E48E" d="M117.761,96.865l2.13,2.16l4.12-4.055c0.612-0.604,1.139-0.67,1.585-0.229
	c0.368,0.384,0.272,0.929-0.266,1.452l-4.179,4.113l2.134,2.167l5.219-5.13c0.589-0.582,0.91-1.172,0.969-1.77
	c0.052-0.597-0.166-1.143-0.656-1.636c-0.686-0.7-1.658-0.943-2.919-0.752l-0.04-0.037l4.533-4.459l-2.127-2.16L117.761,96.865z"/>
<path fill="#D5E48E" d="M127.445,101.421c-0.825,0.811-1.289,1.702-1.4,2.683c-0.114,0.973,0.317,1.961,1.294,2.955
	c0.877,0.893,1.813,1.305,2.812,1.254c1.003-0.052,2.005-0.575,3.012-1.57l3.969-3.914l-2.13-2.167l-4.294,4.224
	c-0.607,0.604-1.124,0.7-1.533,0.28c-0.181-0.185-0.246-0.405-0.202-0.656c0.044-0.258,0.184-0.501,0.412-0.723l4.412-4.349
	l-2.134-2.167L127.445,101.421z"/>
<path fill="#D5E48E" d="M131.854,111.187l2.13,2.16l0.885-0.878l0.037,0.037c-0.288,1.201-0.118,2.115,0.52,2.764
	c0.611,0.619,1.44,0.797,2.491,0.538c1.05-0.272,2.119-0.936,3.214-2.012c1.183-1.165,1.89-2.263,2.122-3.295
	c0.232-1.031,0.048-1.85-0.545-2.454c-0.357-0.369-0.733-0.582-1.132-0.642c-0.397-0.066-0.906-0.052-1.525,0.045l-0.037-0.045
	l4.471-4.4l-2.127-2.159L131.854,111.187z M136.534,112.521c-0.59-0.597-0.288-1.4,0.973-2.646c1.098-1.084,1.905-1.364,2.417-0.841
	c0.571,0.582,0.292,1.438-0.847,2.551C137.904,112.742,137.057,113.052,136.534,112.521L136.534,112.521z"/>
</svg>
