<?xml version="1.0" encoding="utf-8"?>
<!-- Generator: Adobe Illustrator 14.0.0, SVG Export Plug-In . SVG Version: 6.00 Build 43363)  -->
<!DOCTYPE svg PUBLIC "-//W3C//DTD SVG 1.1//EN" "http://www.w3.org/Graphics/SVG/1.1/DTD/svg11.dtd">
<svg version="1.1" id="图层_1" xmlns="http://www.w3.org/2000/svg" xmlns:xlink="http://www.w3.org/1999/xlink" x="0px" y="0px"
	 width="40px" height="40px" viewBox="0 0 40 40" enable-background="new 0 0 40 40" xml:space="preserve">
<g id="XMLID_1_">
	<linearGradient id="SVGID_1_" gradientUnits="userSpaceOnUse" x1="0.417" y1="20" x2="39.8467" y2="20">
		<stop  offset="0" style="stop-color:#6070C8"/>
		<stop  offset="0.4667" style="stop-color:#2896DC"/>
		<stop  offset="0.497" style="stop-color:#28A0FA"/>
		<stop  offset="0.9879" style="stop-color:#4E93D6"/>
	</linearGradient>
	<circle fill="url(#SVGID_1_)" cx="20" cy="20" r="19.5"/>
</g>
<g>
	<path fill="#FFFFFF" d="M14.187,23.03c-0.077,0.376-0.169,0.898-0.278,1.57c-0.108,0.671-0.182,1.19-0.22,1.56
		c-1.365,0.204-2.584,0.307-3.656,0.307c-1.034,0-1.996-0.129-2.886-0.388s-1.707-0.683-2.45-1.273
		c-0.743-0.59-1.274-1.283-1.593-2.081c-0.319-0.798-0.479-1.69-0.479-2.68c0-1.155,0.215-2.193,0.646-3.116
		c0.431-0.922,1.049-1.69,1.856-2.307c0.807-0.616,1.693-1.056,2.656-1.321c0.963-0.265,1.959-0.397,2.986-0.397
		c0.944,0,2.112,0.121,3.503,0.364l0.019,0.804c0.013,0.351,0.032,0.737,0.058,1.158l0.067,1.091
		c-0.747-0.179-1.351-0.3-1.814-0.364c-0.462-0.064-0.892-0.096-1.287-0.096c-0.861,0-1.637,0.172-2.326,0.517
		c-0.689,0.345-1.231,0.846-1.627,1.503c-0.396,0.657-0.593,1.385-0.593,2.182c0,0.728,0.166,1.351,0.498,1.871
		c0.332,0.521,0.78,0.922,1.345,1.206c0.564,0.284,1.262,0.426,2.091,0.426c0.453,0,0.946-0.036,1.479-0.11
		C12.714,23.383,13.383,23.241,14.187,23.03z"/>
	<path fill="#FFFFFF" d="M15.9,26.017c-0.083-1.359-0.179-2.446-0.287-3.264c0.716,0.319,1.354,0.541,1.913,0.665
		c0.559,0.125,1.05,0.187,1.472,0.187c0.556,0,0.999-0.081,1.328-0.244c0.329-0.162,0.494-0.403,0.494-0.723
		c0-0.108-0.016-0.212-0.048-0.311s-0.093-0.211-0.182-0.335s-0.217-0.26-0.384-0.406l-1.803-1.57
		c-0.422-0.357-0.716-0.616-0.882-0.775c-0.339-0.325-0.603-0.628-0.791-0.909c-0.189-0.281-0.326-0.566-0.413-0.856
		c-0.086-0.291-0.129-0.598-0.129-0.924c0-0.389,0.068-0.771,0.206-1.144c0.137-0.374,0.343-0.723,0.618-1.048
		c0.274-0.325,0.638-0.606,1.091-0.842c0.453-0.236,0.938-0.397,1.455-0.483c0.517-0.086,1.049-0.129,1.598-0.129
		c1.078,0,2.253,0.125,3.522,0.373c0.02,0.44,0.041,0.844,0.067,1.211c0.025,0.367,0.086,1.01,0.182,1.929
		c-0.587-0.236-1.123-0.4-1.608-0.493c-0.484-0.092-0.902-0.139-1.254-0.139c-0.497,0-0.91,0.093-1.239,0.277
		c-0.329,0.186-0.493,0.415-0.493,0.689c0,0.127,0.025,0.252,0.076,0.373c0.051,0.122,0.147,0.263,0.288,0.426
		c0.14,0.163,0.325,0.341,0.555,0.536c0.229,0.195,0.59,0.483,1.082,0.866l0.688,0.545c0.204,0.166,0.425,0.367,0.661,0.603
		c0.235,0.236,0.439,0.469,0.612,0.699c0.172,0.229,0.305,0.44,0.397,0.632c0.092,0.191,0.161,0.385,0.205,0.579
		c0.045,0.194,0.067,0.403,0.067,0.626c0,0.575-0.138,1.122-0.411,1.642c-0.274,0.521-0.664,0.948-1.168,1.283
		s-1.058,0.569-1.661,0.703c-0.603,0.134-1.239,0.201-1.909,0.201C18.781,26.467,17.476,26.316,15.9,26.017z"/>
	<path fill="#FFFFFF" d="M26.734,26.017c-0.083-1.359-0.179-2.446-0.287-3.264c0.717,0.319,1.354,0.541,1.913,0.665
		c0.56,0.125,1.05,0.187,1.473,0.187c0.556,0,0.998-0.081,1.327-0.244c0.33-0.162,0.494-0.403,0.494-0.723
		c0-0.108-0.016-0.212-0.048-0.311s-0.093-0.211-0.183-0.335c-0.089-0.124-0.217-0.26-0.383-0.406l-1.804-1.57
		c-0.422-0.357-0.716-0.616-0.882-0.775c-0.339-0.325-0.604-0.628-0.792-0.909s-0.326-0.566-0.412-0.856
		c-0.086-0.291-0.129-0.598-0.129-0.924c0-0.389,0.068-0.771,0.205-1.144c0.138-0.374,0.343-0.723,0.617-1.048
		c0.274-0.325,0.639-0.606,1.092-0.842c0.453-0.236,0.938-0.397,1.454-0.483c0.518-0.086,1.05-0.129,1.599-0.129
		c1.078,0,2.253,0.125,3.522,0.373c0.02,0.44,0.041,0.844,0.067,1.211c0.025,0.367,0.086,1.01,0.182,1.929
		c-0.587-0.236-1.123-0.4-1.608-0.493c-0.484-0.092-0.902-0.139-1.254-0.139c-0.497,0-0.91,0.093-1.239,0.277
		c-0.329,0.186-0.493,0.415-0.493,0.689c0,0.127,0.025,0.252,0.077,0.373c0.051,0.122,0.146,0.263,0.287,0.426
		c0.14,0.163,0.325,0.341,0.555,0.536c0.229,0.195,0.59,0.483,1.082,0.866l0.688,0.545c0.204,0.166,0.425,0.367,0.661,0.603
		c0.235,0.236,0.439,0.469,0.612,0.699c0.172,0.229,0.305,0.44,0.397,0.632c0.092,0.191,0.161,0.385,0.205,0.579
		c0.045,0.194,0.067,0.403,0.067,0.626c0,0.575-0.138,1.122-0.411,1.642c-0.274,0.521-0.664,0.948-1.168,1.283
		s-1.058,0.569-1.661,0.703c-0.603,0.134-1.239,0.201-1.909,0.201C29.616,26.467,28.311,26.316,26.734,26.017z"/>
</g>
</svg>
