<?xml version="1.0" encoding="utf-8"?>
<!-- Generator: Adobe Illustrator 14.0.0, SVG Export Plug-In . SVG Version: 6.00 Build 43363)  -->
<!DOCTYPE svg PUBLIC "-//W3C//DTD SVG 1.1//EN" "http://www.w3.org/Graphics/SVG/1.1/DTD/svg11.dtd">
<svg version="1.1" id="图层_1" xmlns="http://www.w3.org/2000/svg" xmlns:xlink="http://www.w3.org/1999/xlink" x="0px" y="0px"
	 width="40px" height="40px" viewBox="0 0 40 40" enable-background="new 0 0 40 40" xml:space="preserve">
<g id="XMLID_1_">
	
		<linearGradient id="SVGID_1_" gradientUnits="userSpaceOnUse" x1="8.6548" y1="35.8633" x2="31.3435" y2="4.1399" gradientTransform="matrix(0.8134 -0.5817 0.5817 0.8134 -7.9014 15.3659)">
		<stop  offset="0" style="stop-color:#FACF3C"/>
		<stop  offset="0.9515" style="stop-color:#FA5A14"/>
	</linearGradient>
	<circle fill="url(#SVGID_1_)" cx="20" cy="20" r="19.5"/>
</g>
<g>
	<path fill="#FFFFFF" d="M6.038,27.463l0.291-3.765l0.215-4.705l0.14-4.684c0.007-0.202,0.011-0.739,0.011-1.612
		c0.8,0.015,1.554,0.021,2.261,0.021c0.526,0,1.221-0.011,2.083-0.032s1.606-0.033,2.234-0.033c0.851,0,1.639,0.051,2.363,0.152
		s1.358,0.29,1.899,0.568c0.54,0.277,1.009,0.625,1.406,1.043c0.396,0.418,0.721,0.882,0.974,1.39
		c0.252,0.508,0.445,1.075,0.578,1.698c0.134,0.624,0.2,1.26,0.2,1.909c0,1.24-0.215,2.422-0.644,3.543s-1.069,2.048-1.92,2.779
		c-0.851,0.732-1.794,1.203-2.828,1.412c-1.035,0.209-2.208,0.313-3.521,0.313l-3.678-0.021C7.873,27.441,7.184,27.448,6.038,27.463
		z M9.356,25.159c0.591,0.028,1.176,0.043,1.753,0.043c0.656,0,1.264-0.032,1.823-0.098c0.559-0.064,1.041-0.167,1.445-0.308
		s0.81-0.388,1.217-0.741c0.408-0.354,0.741-0.763,1.001-1.228s0.458-0.982,0.595-1.553c0.138-0.57,0.206-1.15,0.206-1.742
		c0-1.082-0.184-1.97-0.552-2.666c-0.367-0.696-0.853-1.197-1.455-1.503c-0.602-0.307-1.53-0.46-2.785-0.46
		c-0.815,0-1.749,0.015-2.802,0.043L9.356,25.159z"/>
	<path fill="#FFFFFF" d="M22.826,27.16c-0.059-0.98-0.13-1.828-0.217-2.542c1.498,0.541,2.884,0.812,4.158,0.812
		c0.634,0,1.208-0.101,1.723-0.303c0.515-0.201,0.922-0.491,1.221-0.868c0.299-0.378,0.448-0.822,0.448-1.333
		c0-0.432-0.124-0.811-0.372-1.139c-0.249-0.327-0.637-0.571-1.166-0.733c-0.529-0.163-1.211-0.244-2.046-0.244
		c-0.532,0-1.083,0.032-1.651,0.098c0.072-0.833,0.13-1.623,0.174-2.369c0.425,0.072,0.843,0.108,1.254,0.108
		c0.635,0,1.239-0.061,1.813-0.184c0.573-0.123,1.018-0.373,1.336-0.751c0.316-0.379,0.476-0.792,0.476-1.239
		c0-0.18-0.027-0.355-0.081-0.524c-0.055-0.169-0.13-0.325-0.228-0.465c-0.097-0.141-0.22-0.265-0.367-0.373
		c-0.148-0.108-0.313-0.196-0.492-0.265c-0.181-0.068-0.426-0.124-0.736-0.167c-0.31-0.043-0.642-0.065-0.995-0.065
		c-0.476,0-0.968,0.031-1.476,0.092c-0.509,0.062-1.156,0.179-1.942,0.352l0.206-0.897l0.26-1.417
		c0.829-0.115,1.528-0.195,2.098-0.238c0.57-0.043,1.187-0.065,1.85-0.065c0.758,0,1.491,0.062,2.201,0.184
		c0.711,0.123,1.318,0.336,1.823,0.639c0.505,0.303,0.878,0.697,1.119,1.18s0.362,1.014,0.362,1.591c0,0.375-0.054,0.745-0.162,1.11
		c-0.108,0.364-0.269,0.702-0.481,1.012c-0.213,0.311-0.45,0.566-0.714,0.769c-0.263,0.202-0.521,0.365-0.773,0.487
		c-0.252,0.123-0.62,0.267-1.104,0.433c0.52,0.08,0.916,0.168,1.19,0.266c0.273,0.097,0.544,0.245,0.812,0.442
		c0.267,0.198,0.493,0.429,0.681,0.693c0.188,0.263,0.328,0.565,0.422,0.907c0.094,0.343,0.141,0.701,0.141,1.076
		c0,0.677-0.16,1.316-0.481,1.918c-0.32,0.602-0.786,1.101-1.395,1.497c-0.609,0.396-1.304,0.676-2.083,0.838
		c-0.778,0.162-1.59,0.243-2.434,0.243c-0.62,0-1.262-0.04-1.925-0.119C24.606,27.524,23.792,27.376,22.826,27.16z"/>
</g>
</svg>
