<?xml version="1.0" encoding="utf-8"?>
<!-- Generator: Adobe Illustrator 14.0.0, SVG Export Plug-In . SVG Version: 6.00 Build 43363)  -->
<!DOCTYPE svg PUBLIC "-//W3C//DTD SVG 1.1//EN" "http://www.w3.org/Graphics/SVG/1.1/DTD/svg11.dtd">
<svg version="1.1" id="图层_1" xmlns="http://www.w3.org/2000/svg" xmlns:xlink="http://www.w3.org/1999/xlink" x="0px" y="0px"
	 width="40px" height="40px" viewBox="0 0 40 40" enable-background="new 0 0 40 40" xml:space="preserve">
<g id="XMLID_1_">
	<linearGradient id="SVGID_1_" gradientUnits="userSpaceOnUse" x1="0.417" y1="20" x2="39.8467" y2="20">
		<stop  offset="0" style="stop-color:#E63C00"/>
		<stop  offset="0.4848" style="stop-color:#E63545"/>
		<stop  offset="0.497" style="stop-color:#F05A3C"/>
		<stop  offset="1" style="stop-color:#F05A3C"/>
	</linearGradient>
	<circle fill="url(#SVGID_1_)" cx="20" cy="20" r="19.5"/>
</g>
<g>
	<path fill="#FFFFFF" d="M2.833,23.041l0.227-3.199l0.105-2.332l0.029-1.037c0.008-0.301,0.012-0.59,0.012-0.867L3.2,15.043
		c0.614,0.008,1.073,0.012,1.378,0.012c0.239,0,0.653-0.004,1.244-0.012c-0.093,1.121-0.152,2.111-0.179,2.971h3.189
		c0.02-0.321,0.038-0.754,0.055-1.3c0.018-0.546,0.026-0.919,0.026-1.119c0-0.105-0.004-0.29-0.012-0.552l1.387,0.012
		c0.145,0,0.554-0.004,1.229-0.012c-0.14,2.008-0.229,3.501-0.268,4.479c-0.039,0.979-0.058,2.151-0.058,3.518l-1.278-0.012
		c-0.192,0-0.649,0.004-1.373,0.012c0.098-0.93,0.164-2.012,0.199-3.246H5.548L5.45,23.041l-1.361-0.012
		C3.917,23.029,3.498,23.033,2.833,23.041z"/>
	<path fill="#FFFFFF" d="M14.412,23.041c0.194-1.898,0.311-3.988,0.349-6.269l-2.494,0.064l0.029-0.65
		c0.016-0.348,0.027-0.729,0.035-1.143c1.109,0.008,2.401,0.012,3.878,0.012l1.447-0.006h1.405l0.762-0.006l-0.035,0.574
		c-0.016,0.308-0.026,0.563-0.032,0.764s-0.009,0.353-0.009,0.456c-0.835-0.043-1.523-0.064-2.066-0.064h-0.41
		c-0.059,0.69-0.104,1.328-0.135,1.913c-0.044,0.838-0.077,1.652-0.101,2.441C17.012,21.916,17,22.555,17,23.041
		c-0.641-0.008-1.054-0.012-1.242-0.012C15.59,23.029,15.142,23.033,14.412,23.041z"/>
	<path fill="#FFFFFF" d="M20.112,23.041l0.146-1.184l0.36-4.107l0.18-2.707c0.722,0.008,1.288,0.012,1.699,0.012
		c0.342,0,0.862-0.004,1.564-0.012c0.051,0.336,0.094,0.591,0.129,0.765s0.121,0.514,0.26,1.02s0.249,0.943,0.333,1.313
		s0.209,1.001,0.377,1.896c0.172-0.613,0.329-1.141,0.47-1.582s0.316-0.943,0.528-1.506c0.211-0.563,0.345-0.931,0.402-1.104
		c0.057-0.174,0.134-0.44,0.231-0.8c0.586,0.008,1.16,0.012,1.723,0.012c0.383,0,0.914-0.004,1.594-0.012
		c-0.074,1.316-0.123,2.447-0.146,3.393c-0.051,1.852-0.076,3.125-0.076,3.82c0,0.145,0.004,0.406,0.012,0.785
		c-0.516-0.008-0.877-0.012-1.084-0.012c-0.301,0-0.67,0.004-1.107,0.012c0.032-0.352,0.071-1.188,0.119-2.51
		c0.048-1.322,0.071-2.167,0.071-2.534c0-0.16-0.004-0.383-0.012-0.668l-0.769,2.385l-1.104,3.328
		c-0.508-0.008-0.857-0.012-1.049-0.012c-0.242,0-0.613,0.004-1.113,0.012l-0.723-3.222l-0.423-1.717
		c-0.016-0.066-0.033-0.148-0.053-0.246s-0.051-0.27-0.094-0.516l-0.147,1.623l-0.195,3.328l-0.018,0.75
		c-0.539-0.008-0.883-0.012-1.031-0.012C20.964,23.029,20.612,23.033,20.112,23.041z"/>
	<path fill="#FFFFFF" d="M31.239,23.041c0.098-0.922,0.169-1.674,0.212-2.255c0.082-1.063,0.145-2.118,0.186-3.167
		s0.062-1.907,0.062-2.575c0.531,0.008,1.001,0.012,1.411,0.012c0.277,0,0.675-0.004,1.194-0.012l-0.142,2.121l-0.176,3.316
		l-0.023,0.814c0.672,0.012,1.109,0.018,1.313,0.018c1.028,0,1.806-0.014,2.333-0.041l-0.129,1.77
		c-1.027-0.008-2.006-0.012-2.936-0.012C33.286,23.029,32.185,23.033,31.239,23.041z"/>
</g>
</svg>
