<?xml version="1.0" encoding="utf-8"?>
<!-- Generator: Adobe Illustrator 14.0.0, SVG Export Plug-In . SVG Version: 6.00 Build 43363)  -->
<!DOCTYPE svg PUBLIC "-//W3C//DTD SVG 1.1//EN" "http://www.w3.org/Graphics/SVG/1.1/DTD/svg11.dtd">
<svg version="1.1" id="图层_1" xmlns="http://www.w3.org/2000/svg" xmlns:xlink="http://www.w3.org/1999/xlink" x="0px" y="0px"
	 width="40px" height="40px" viewBox="0 0 40 40" enable-background="new 0 0 40 40" xml:space="preserve">
<g id="XMLID_1_">
	
		<linearGradient id="svg_jquery" gradientUnits="userSpaceOnUse" x1="0.416" y1="20" x2="39.8457" y2="20" gradientTransform="matrix(0.8134 -0.5817 0.5817 0.8134 -7.9014 15.3659)">
		<stop  offset="0" style="stop-color:#3C58BE"/>
		<stop  offset="0.4545" style="stop-color:#4C80E2"/>
		<stop  offset="0.497" style="stop-color:#5AA0DC"/>
		<stop  offset="0.9636" style="stop-color:#5AA0DC"/>
	</linearGradient>
	<circle fill="url(#svg_jquery)" cx="20" cy="20" r="19.5"/>
</g>
<g>
	<path fill="#FFFFFF" d="M5.91,16.541l-0.104,2.611L5.733,21.77c-0.024,1.09-0.048,1.743-0.073,1.962
		c-0.031,0.281-0.078,0.5-0.141,0.656c-0.052,0.137-0.118,0.257-0.198,0.362c-0.083,0.105-0.188,0.201-0.313,0.287
		c-0.135,0.094-0.283,0.164-0.443,0.211c-0.226,0.063-0.49,0.094-0.792,0.094c-0.188,0-0.412-0.013-0.672-0.038
		c-0.26-0.025-0.554-0.075-0.88-0.149L2.17,24.398l-0.052-0.504C2.476,24.031,2.804,24.1,3.102,24.1c0.156,0,0.3-0.024,0.43-0.073
		c0.13-0.049,0.24-0.114,0.331-0.196c0.063-0.063,0.116-0.137,0.162-0.223c0.073-0.144,0.127-0.321,0.164-0.532
		s0.074-0.731,0.112-1.563c0.028-0.632,0.05-1.372,0.067-2.219c0.027-1.104,0.041-1.844,0.041-2.219v-0.533
		c0.316,0.008,0.57,0.012,0.761,0.012C5.372,16.553,5.618,16.549,5.91,16.541z M4.44,15.504c0.021-0.406,0.035-0.771,0.042-1.096
		c0.227,0.008,0.479,0.012,0.758,0.012c0.251,0,0.502-0.004,0.752-0.012l-0.031,0.557c0,0.02-0.007,0.199-0.021,0.539
		c-0.262-0.008-0.511-0.012-0.748-0.012C4.949,15.492,4.698,15.496,4.44,15.504z"/>
	<path fill="#FFFFFF" d="M15.136,20.971c-0.045,0.234-0.087,0.469-0.125,0.703l-0.099,0.639c-0.608,0.102-1.262,0.182-1.961,0.24
		s-1.296,0.088-1.79,0.088c-0.576,0-1.117-0.071-1.623-0.214s-0.959-0.392-1.362-0.747s-0.708-0.783-0.917-1.283
		s-0.313-1.078-0.313-1.734c0-0.652,0.102-1.248,0.305-1.787s0.501-1.002,0.894-1.389s0.848-0.671,1.367-0.853
		c0.52-0.182,1.069-0.272,1.649-0.272c0.524,0,1.03,0.085,1.516,0.255s0.905,0.434,1.255,0.791c0.351,0.357,0.62,0.786,0.808,1.286
		s0.281,1.02,0.281,1.559c0,0.273-0.024,0.541-0.073,0.803c-0.049,0.262-0.118,0.512-0.208,0.75s-0.193,0.445-0.307,0.621
		c-0.115,0.176-0.232,0.328-0.352,0.457c-0.12,0.129-0.265,0.271-0.435,0.428c0.333-0.043,0.571-0.081,0.713-0.114
		S14.761,21.088,15.136,20.971z M11.085,15.615c-0.503,0-0.958,0.132-1.366,0.396c-0.408,0.264-0.716,0.633-0.924,1.107
		c-0.208,0.475-0.313,0.974-0.313,1.497c0,0.586,0.106,1.084,0.317,1.494c0.212,0.41,0.504,0.722,0.877,0.935
		s0.782,0.319,1.226,0.319c0.479,0,0.918-0.123,1.319-0.369s0.703-0.601,0.906-1.063c0.203-0.463,0.304-0.979,0.304-1.55
		c0-0.414-0.054-0.792-0.161-1.134c-0.108-0.342-0.263-0.635-0.466-0.879c-0.203-0.244-0.457-0.431-0.763-0.56
		C11.738,15.68,11.418,15.615,11.085,15.615z"/>
	<path fill="#FFFFFF" d="M21.414,22.5c-0.305-0.008-0.54-0.012-0.703-0.012c-0.205,0-0.438,0.004-0.698,0.012l0.009-0.973
		c-0.097,0.164-0.183,0.296-0.255,0.396s-0.168,0.197-0.287,0.293c-0.118,0.096-0.247,0.172-0.385,0.229s-0.298,0.104-0.477,0.141
		s-0.369,0.056-0.57,0.056c-0.389,0-0.728-0.063-1.016-0.19s-0.517-0.319-0.685-0.577c-0.168-0.258-0.253-0.627-0.253-1.107v-0.123
		l0.084-1.512l0.079-1.992c0.003-0.16,0.005-0.359,0.005-0.598c0.33,0.008,0.588,0.012,0.775,0.012c0.198,0,0.437-0.004,0.718-0.012
		l-0.173,2.672c-0.01,0.207-0.019,0.382-0.023,0.524c-0.005,0.143-0.008,0.245-0.008,0.308c0,0.281,0.037,0.515,0.112,0.7
		c0.074,0.186,0.205,0.327,0.39,0.425s0.384,0.146,0.596,0.146c0.201,0,0.392-0.043,0.572-0.129
		c0.163-0.078,0.303-0.188,0.419-0.328s0.214-0.33,0.294-0.568c0.059-0.172,0.104-0.41,0.135-0.715
		c0.024-0.215,0.047-0.584,0.068-1.107c0.029-0.633,0.049-1.275,0.06-1.928c0.344,0.008,0.607,0.012,0.788,0.012
		c0.206,0,0.436-0.004,0.694-0.012c-0.041,0.559-0.085,1.257-0.13,2.095s-0.076,1.529-0.094,2.074
		C21.439,21.255,21.426,21.852,21.414,22.5z"/>
	<path fill="#FFFFFF" d="M27.436,21.17c-0.045,0.23-0.109,0.645-0.191,1.242c-0.375,0.09-0.691,0.15-0.949,0.182
		c-0.256,0.031-0.516,0.047-0.775,0.047c-0.455,0-0.863-0.051-1.223-0.152s-0.674-0.288-0.945-0.559
		c-0.27-0.271-0.471-0.604-0.599-0.999c-0.128-0.394-0.192-0.808-0.192-1.241c0-0.48,0.074-0.945,0.224-1.396
		c0.149-0.451,0.358-0.819,0.628-1.106c0.27-0.287,0.576-0.49,0.92-0.608c0.344-0.119,0.703-0.179,1.078-0.179
		c0.354,0,0.691,0.05,1.01,0.149c0.32,0.1,0.588,0.262,0.805,0.489c0.217,0.226,0.385,0.498,0.5,0.815
		c0.117,0.318,0.176,0.672,0.176,1.062c0,0.184-0.018,0.373-0.053,0.567l-3.818,0.006c-0.008,0.145-0.01,0.26-0.01,0.346
		c0,0.262,0.039,0.502,0.119,0.721s0.195,0.404,0.35,0.557c0.152,0.152,0.334,0.265,0.547,0.337c0.211,0.072,0.42,0.108,0.625,0.108
		c0.24,0,0.498-0.029,0.779-0.088C26.719,21.41,27.051,21.311,27.436,21.17z M24.07,18.803l2.439,0.006
		c0-0.187-0.006-0.325-0.016-0.415c-0.012-0.089-0.035-0.191-0.07-0.306c-0.037-0.115-0.086-0.216-0.148-0.303
		c-0.063-0.088-0.137-0.161-0.219-0.219c-0.084-0.058-0.18-0.103-0.289-0.134c-0.109-0.031-0.229-0.047-0.354-0.047
		c-0.145,0-0.287,0.025-0.424,0.076c-0.137,0.051-0.264,0.125-0.377,0.222c-0.115,0.097-0.209,0.206-0.279,0.327
		s-0.125,0.236-0.158,0.347C24.141,18.467,24.105,18.616,24.07,18.803z"/>
	<path fill="#FFFFFF" d="M28.682,22.5l0.15-2.783l0.041-1.617c0.008-0.332,0.012-0.666,0.012-1.002c0-0.059-0.004-0.244-0.012-0.557
		c0.324,0.008,0.563,0.012,0.715,0.012c0.178,0,0.412-0.004,0.703-0.012l-0.025,0.826c0.131-0.211,0.244-0.368,0.338-0.472
		s0.199-0.192,0.314-0.267c0.117-0.074,0.246-0.131,0.389-0.17s0.289-0.059,0.438-0.059c0.139,0,0.281,0.02,0.428,0.059
		c0,0.363,0.016,0.824,0.047,1.383c-0.205-0.063-0.391-0.094-0.559-0.094c-0.201,0-0.379,0.034-0.533,0.103
		s-0.293,0.172-0.416,0.311c-0.125,0.139-0.227,0.31-0.305,0.513c-0.066,0.164-0.115,0.377-0.146,0.639
		c-0.027,0.203-0.051,0.551-0.068,1.043c-0.02,0.492-0.029,0.977-0.029,1.453c0,0.184,0.006,0.414,0.016,0.691
		c-0.264-0.008-0.506-0.012-0.725-0.012C29.238,22.488,28.98,22.492,28.682,22.5z"/>
	<path fill="#FFFFFF" d="M32.178,25.189c-0.063-0.586-0.113-1.008-0.152-1.266c0.334,0.176,0.648,0.264,0.943,0.264
		c0.09,0,0.182-0.013,0.275-0.038s0.182-0.062,0.262-0.108c0.053-0.031,0.105-0.076,0.158-0.135
		c0.055-0.059,0.129-0.165,0.223-0.321s0.174-0.311,0.244-0.462c0.055-0.131,0.113-0.295,0.172-0.492l-1.084-3.563l-0.791-2.527
		c0.363,0.008,0.627,0.012,0.785,0.012c0.186,0,0.426-0.004,0.725-0.012c0.072,0.324,0.141,0.605,0.203,0.844l0.496,1.84
		c0.152,0.566,0.262,0.992,0.328,1.277c0.041,0.188,0.09,0.436,0.146,0.744c0.104-0.355,0.193-0.644,0.27-0.867
		c0.137-0.406,0.324-0.949,0.568-1.629l0.504-1.401c0.09-0.25,0.182-0.52,0.275-0.809c0.313,0.008,0.551,0.012,0.715,0.012
		c0.148,0,0.4-0.004,0.75-0.012l-2.006,5.053l-0.869,2.231c-0.121,0.289-0.238,0.514-0.35,0.674
		c-0.09,0.136-0.189,0.253-0.297,0.351c-0.104,0.094-0.215,0.172-0.332,0.234c-0.15,0.078-0.313,0.141-0.486,0.188
		c-0.197,0.047-0.396,0.07-0.598,0.07c-0.115,0-0.275-0.012-0.48-0.035S32.371,25.244,32.178,25.189z"/>
</g>
</svg>
