<?xml version="1.0" encoding="utf-8"?>
<!-- Generator: Adobe Illustrator 14.0.0, SVG Export Plug-In . SVG Version: 6.00 Build 43363)  -->
<!DOCTYPE svg PUBLIC "-//W3C//DTD SVG 1.1//EN" "http://www.w3.org/Graphics/SVG/1.1/DTD/svg11.dtd">
<svg version="1.1" id="图层_1" xmlns="http://www.w3.org/2000/svg" xmlns:xlink="http://www.w3.org/1999/xlink" x="0px" y="0px"
	 width="40px" height="40px" viewBox="0 0 40 40" enable-background="new 0 0 40 40" xml:space="preserve">
<g id="XMLID_1_">
	
		<linearGradient id="svg_js" gradientUnits="userSpaceOnUse" x1="0.416" y1="20" x2="39.8457" y2="20" gradientTransform="matrix(0.8134 -0.5817 0.5817 0.8134 -7.9014 15.3659)">
		<stop  offset="0" style="stop-color:#D21E3C"/>
		<stop  offset="0.4545" style="stop-color:#D21E3C"/>
		<stop  offset="0.497" style="stop-color:#E65A6E"/>
		<stop  offset="1" style="stop-color:#E65A6E"/>
	</linearGradient>
	<circle fill="url(#svg_js)" cx="20" cy="20" r="19.5"/>
</g>
<g>
	<path fill="#FFFFFF" d="M17.971,13.287l-0.235,5.247l-0.165,5.259c-0.055,2.188-0.11,3.502-0.165,3.941
		c-0.071,0.564-0.177,1.004-0.318,1.316c-0.118,0.275-0.267,0.518-0.447,0.73c-0.188,0.211-0.424,0.402-0.707,0.576
		c-0.306,0.188-0.64,0.328-1,0.424c-0.51,0.125-1.106,0.188-1.789,0.188c-0.424,0-0.93-0.025-1.519-0.076
		c-0.589-0.051-1.252-0.152-1.99-0.301l-0.118-1.518l-0.118-1.014c0.809,0.275,1.55,0.412,2.225,0.412
		c0.353,0,0.677-0.049,0.971-0.146c0.294-0.098,0.543-0.23,0.748-0.395c0.141-0.125,0.263-0.273,0.365-0.447
		c0.165-0.289,0.289-0.646,0.371-1.068c0.083-0.424,0.167-1.471,0.253-3.141c0.062-1.271,0.112-2.757,0.151-4.459
		c0.062-2.219,0.093-3.706,0.093-4.458v-1.071c0.714,0.016,1.288,0.024,1.72,0.024C16.753,13.311,17.311,13.303,17.971,13.287z
		 M14.648,11.204c0.047-0.816,0.079-1.55,0.095-2.201c0.512,0.016,1.083,0.023,1.713,0.023c0.567,0,1.134-0.008,1.701-0.023
		l-0.071,1.118c0,0.04-0.016,0.4-0.047,1.083c-0.591-0.016-1.154-0.023-1.689-0.023C15.798,11.18,15.231,11.188,14.648,11.204z"/>
	<path fill="#FFFFFF" d="M20.172,25.035l-0.258-2.59c0.769,0.314,1.42,0.533,1.954,0.654c0.534,0.121,1.024,0.182,1.472,0.182
		s0.824-0.053,1.13-0.158c0.307-0.105,0.534-0.264,0.683-0.471c0.149-0.209,0.225-0.426,0.225-0.654c0-0.102-0.011-0.195-0.03-0.281
		c-0.02-0.088-0.055-0.178-0.105-0.271s-0.11-0.182-0.177-0.266c-0.066-0.082-0.159-0.176-0.276-0.282
		c-0.118-0.106-0.287-0.241-0.507-0.406l-0.635-0.506c-0.612-0.479-1.08-0.855-1.401-1.13c-0.322-0.275-0.593-0.555-0.813-0.842
		c-0.22-0.286-0.387-0.588-0.5-0.906c-0.114-0.318-0.171-0.642-0.171-0.971c0-0.573,0.175-1.119,0.524-1.636
		c0.349-0.518,0.857-0.896,1.524-1.136c0.667-0.239,1.451-0.359,2.354-0.359c1.027,0,2.213,0.122,3.555,0.365l0.153,2.46
		c-0.911-0.369-1.786-0.553-2.625-0.553c-0.456,0-0.854,0.045-1.195,0.135s-0.587,0.228-0.735,0.412
		c-0.149,0.185-0.224,0.391-0.224,0.618c0,0.133,0.023,0.265,0.07,0.394s0.129,0.265,0.247,0.406s0.253,0.275,0.406,0.4
		s0.473,0.373,0.959,0.741c0.487,0.369,0.913,0.703,1.277,1.001c0.365,0.298,0.665,0.599,0.9,0.9s0.416,0.626,0.542,0.972
		c0.125,0.344,0.188,0.693,0.188,1.047c0,0.588-0.181,1.135-0.542,1.637c-0.36,0.502-0.906,0.895-1.636,1.176
		c-0.73,0.283-1.547,0.424-2.449,0.424c-0.471,0-1.043-0.037-1.719-0.111C21.663,25.355,20.941,25.225,20.172,25.035z"/>
</g>
</svg>
