<?xml version="1.0" encoding="utf-8"?>
<!-- Generator: Adobe Illustrator 14.0.0, SVG Export Plug-In . SVG Version: 6.00 Build 43363)  -->
<!DOCTYPE svg PUBLIC "-//W3C//DTD SVG 1.1//EN" "http://www.w3.org/Graphics/SVG/1.1/DTD/svg11.dtd">
<svg version="1.1" id="图层_1" xmlns="http://www.w3.org/2000/svg" xmlns:xlink="http://www.w3.org/1999/xlink" x="0px" y="0px"
	 width="40px" height="40px" viewBox="0 0 40 40" enable-background="new 0 0 40 40" xml:space="preserve">
<g id="XMLID_1_">
	<circle fill="#DCDCDC" cx="20" cy="20" r="19.5"/>
</g>
<g>
	<path fill="#041EA0" d="M2.294,24.609l0.141-1.681l0.358-5.905l0.125-2.565c0.515,0.01,0.892,0.015,1.13,0.015
		c0.191,0,0.539-0.005,1.043-0.015c0.058,0.401,0.101,0.687,0.13,0.855c0.029,0.169,0.085,0.439,0.168,0.811
		c0.083,0.372,0.19,0.823,0.32,1.354c0.192,0.803,0.364,1.597,0.516,2.38l0.412,2.127l0.724-2.729l1.054-3.547
		c0.036-0.119,0.073-0.256,0.111-0.413c0.038-0.156,0.102-0.435,0.191-0.836c0.43,0.01,0.813,0.015,1.148,0.015
		c0.224,0,0.582-0.005,1.072-0.015c-0.05,1.428-0.088,3.005-0.113,4.733c-0.025,1.728-0.038,3.018-0.038,3.871
		c0,0.412,0.003,0.927,0.011,1.547c-0.357-0.01-0.601-0.015-0.731-0.015c-0.188,0-0.437,0.005-0.747,0.015
		c0.021-0.506,0.036-0.922,0.043-1.249l0.091-4.425c0.011-0.625,0.016-1.239,0.016-1.844l-0.005-0.602l-1.989,7.236l-0.232,0.885
		c-0.352-0.01-0.593-0.015-0.723-0.015c-0.163,0-0.419,0.005-0.767,0.015l-0.932-4.581c-0.033-0.164-0.108-0.505-0.228-1.026
		l-0.336-1.517c-0.032-0.144-0.057-0.262-0.073-0.354c-0.017-0.092-0.052-0.296-0.106-0.613L4.01,17.47
		c-0.018,0.302-0.045,0.808-0.081,1.517l-0.211,4.61c-0.007,0.229-0.013,0.565-0.017,1.012l-0.698-0.015
		C2.884,24.595,2.648,24.6,2.294,24.609z"/>
	<path fill="#041EA0" d="M11.48,28.022c-0.065-0.743-0.117-1.278-0.157-1.606c0.347,0.224,0.673,0.335,0.98,0.335
		c0.094,0,0.189-0.016,0.287-0.048c0.097-0.032,0.188-0.078,0.271-0.138c0.054-0.04,0.109-0.097,0.165-0.171
		c0.056-0.074,0.133-0.21,0.23-0.408c0.097-0.198,0.182-0.394,0.254-0.587c0.058-0.165,0.117-0.374,0.178-0.625l-1.126-4.521
		l-0.823-3.207c0.379,0.01,0.651,0.015,0.817,0.015c0.191,0,0.442-0.005,0.752-0.015c0.076,0.412,0.146,0.769,0.211,1.071
		l0.515,2.335c0.159,0.719,0.273,1.259,0.341,1.622c0.043,0.238,0.094,0.553,0.152,0.944c0.108-0.451,0.202-0.818,0.281-1.101
		c0.141-0.516,0.337-1.205,0.589-2.068l0.524-1.777c0.094-0.317,0.189-0.66,0.287-1.026c0.325,0.01,0.572,0.015,0.742,0.015
		c0.155,0,0.415-0.005,0.78-0.015l-2.084,6.414l-0.904,2.831c-0.126,0.367-0.248,0.651-0.363,0.854
		c-0.094,0.174-0.197,0.322-0.309,0.446c-0.108,0.119-0.224,0.218-0.346,0.297c-0.155,0.1-0.323,0.179-0.503,0.238
		c-0.206,0.06-0.414,0.089-0.623,0.089c-0.119,0-0.285-0.015-0.498-0.044C11.89,28.142,11.683,28.092,11.48,28.022z"/>
	<path fill="#D37611" d="M18.041,24.394c-0.029-0.753-0.067-1.368-0.114-1.844c0.708,0.441,1.35,0.661,1.927,0.661
		c0.231,0,0.447-0.048,0.647-0.145s0.348-0.233,0.444-0.409s0.144-0.373,0.144-0.591c0-0.169-0.023-0.32-0.069-0.454
		c-0.069-0.184-0.184-0.374-0.345-0.572c-0.207-0.273-0.574-0.722-1.104-1.346c-0.252-0.302-0.427-0.518-0.523-0.647
		c-0.216-0.283-0.382-0.537-0.498-0.762c-0.115-0.226-0.198-0.45-0.249-0.673c-0.05-0.223-0.076-0.461-0.076-0.714
		c0-0.466,0.095-0.903,0.284-1.313c0.189-0.409,0.473-0.729,0.85-0.959c0.377-0.231,0.853-0.346,1.426-0.346
		c0.516,0,1.097,0.087,1.743,0.26c0.019,0.516,0.055,1.106,0.108,1.77c-0.562-0.297-1.08-0.446-1.556-0.446
		c-0.353,0-0.642,0.11-0.867,0.331s-0.338,0.477-0.338,0.77c0,0.08,0.008,0.163,0.023,0.25c0.016,0.086,0.04,0.171,0.071,0.252
		c0.031,0.082,0.087,0.188,0.168,0.32c0.08,0.131,0.198,0.285,0.353,0.461c0.155,0.176,0.288,0.318,0.397,0.427l0.668,0.833
		c0.169,0.193,0.32,0.382,0.453,0.565c0.134,0.183,0.248,0.359,0.344,0.528c0.095,0.168,0.17,0.33,0.224,0.483
		c0.055,0.154,0.095,0.312,0.122,0.473s0.04,0.331,0.04,0.51c0,0.416-0.07,0.809-0.211,1.179c-0.141,0.369-0.343,0.673-0.606,0.91
		c-0.263,0.238-0.552,0.403-0.865,0.495c-0.314,0.092-0.646,0.138-0.997,0.138c-0.231,0-0.5-0.027-0.807-0.082
		S18.542,24.548,18.041,24.394z"/>
	<path fill="#D37611" d="M32.245,22.668c-0.047,0.298-0.091,0.596-0.13,0.893l-0.104,0.811c-0.631,0.129-1.311,0.23-2.038,0.306
		c-0.727,0.074-1.347,0.111-1.859,0.111c-0.599,0-1.161-0.091-1.686-0.271c-0.525-0.181-0.997-0.497-1.416-0.948
		c-0.418-0.451-0.736-0.994-0.952-1.629c-0.217-0.635-0.325-1.368-0.325-2.201c0-0.828,0.105-1.584,0.316-2.268
		c0.212-0.684,0.521-1.271,0.929-1.763c0.408-0.491,0.882-0.851,1.421-1.082c0.539-0.231,1.11-0.346,1.713-0.346
		c0.545,0,1.07,0.108,1.575,0.324c0.506,0.215,0.94,0.55,1.305,1.004s0.645,0.998,0.839,1.632c0.195,0.635,0.293,1.294,0.293,1.978
		c0,0.347-0.025,0.687-0.076,1.019s-0.122,0.649-0.217,0.952c-0.094,0.303-0.2,0.565-0.319,0.788
		c-0.119,0.224-0.24,0.417-0.365,0.58c-0.124,0.164-0.275,0.345-0.452,0.543c0.347-0.055,0.594-0.103,0.742-0.145
		C31.586,22.913,31.855,22.817,32.245,22.668z M28.036,15.872c-0.522,0-0.996,0.167-1.42,0.502
		c-0.423,0.334-0.743,0.803-0.959,1.405c-0.217,0.603-0.325,1.236-0.325,1.9c0,0.744,0.11,1.376,0.33,1.896s0.523,0.916,0.911,1.187
		c0.388,0.27,0.813,0.405,1.273,0.405c0.497,0,0.954-0.156,1.371-0.469c0.416-0.313,0.729-0.763,0.94-1.35
		c0.211-0.588,0.316-1.243,0.316-1.967c0-0.525-0.056-1.005-0.167-1.439c-0.112-0.434-0.273-0.806-0.484-1.115
		c-0.211-0.31-0.475-0.547-0.792-0.71S28.382,15.872,28.036,15.872z"/>
	<path fill="#D37611" d="M33.24,24.609c0.107-1.492,0.194-3.154,0.259-4.986c0.064-1.832,0.102-3.553,0.112-5.165
		c0.369,0.01,0.676,0.015,0.922,0.015c0.166,0,0.432-0.005,0.797-0.015c-0.048,0.892-0.092,1.909-0.132,3.049l-0.11,2.982
		c-0.033,0.853-0.057,1.701-0.071,2.544l0.933,0.015c0.874,0,1.449-0.004,1.724-0.012c0.274-0.007,0.546-0.021,0.813-0.04
		c-0.032,0.485-0.061,1.023-0.086,1.613c-0.949-0.01-1.762-0.015-2.437-0.015l-1.705,0.007L33.24,24.609z"/>
</g>
</svg>
