<?xml version="1.0" encoding="utf-8"?>
<!-- Generator: Adobe Illustrator 14.0.0, SVG Export Plug-In . SVG Version: 6.00 Build 43363)  -->
<!DOCTYPE svg PUBLIC "-//W3C//DTD SVG 1.1//EN" "http://www.w3.org/Graphics/SVG/1.1/DTD/svg11.dtd">
<svg version="1.1" id="图层_1" xmlns="http://www.w3.org/2000/svg" xmlns:xlink="http://www.w3.org/1999/xlink" x="0px" y="0px"
	 width="40px" height="40px" viewBox="0 0 40 40" enable-background="new 0 0 40 40" xml:space="preserve">
<g id="XMLID_1_">
	
		<linearGradient id="SVGID_1_" gradientUnits="userSpaceOnUse" x1="8.6548" y1="35.8633" x2="31.3435" y2="4.1399" gradientTransform="matrix(0.8134 -0.5817 0.5817 0.8134 -7.9014 15.3659)">
		<stop  offset="0" style="stop-color:#64D532"/>
		<stop  offset="0.8606" style="stop-color:#3C7800"/>
	</linearGradient>
	<circle fill="url(#SVGID_1_)" cx="20" cy="20" r="19.5"/>
</g>
<g>
	<path fill="#007213" d="M2.929,23.682c0.067-0.636,0.119-1.35,0.154-2.141l0.122-2.61c0.042-0.945,0.063-1.784,0.063-2.52
		c0.412,0.007,0.761,0.011,1.048,0.011c0.213,0,0.523-0.003,0.932-0.011c0.401,0.7,0.956,1.612,1.663,2.738
		c0.707,1.125,1.277,2.058,1.711,2.796l0.195-4.942c0.003-0.117,0.005-0.314,0.005-0.591c0.334,0.007,0.586,0.011,0.757,0.011
		c0.068,0,0.316-0.003,0.747-0.011l-0.132,1.955l-0.165,3.345l-0.064,1.971c-0.369-0.007-0.683-0.011-0.942-0.011
		c-0.206,0-0.54,0.004-1.001,0.011c-0.178-0.316-0.313-0.551-0.405-0.703c-0.146-0.234-0.457-0.717-0.933-1.448
		c-0.313-0.483-0.703-1.101-1.172-1.854c-0.345-0.554-0.64-1.037-0.884-1.449C4.6,18.803,4.556,19.87,4.496,21.429
		c-0.024,0.636-0.044,1.387-0.058,2.253c-0.334-0.007-0.576-0.011-0.725-0.011C3.595,23.671,3.334,23.675,2.929,23.682z"/>
	<path fill="#FFFFFF" d="M14.326,18.137c0.408,0,0.8,0.062,1.174,0.184s0.692,0.303,0.954,0.543c0.261,0.24,0.457,0.533,0.588,0.879
		s0.197,0.711,0.197,1.094c0,0.405-0.069,0.795-0.208,1.172c-0.139,0.376-0.339,0.702-0.602,0.977
		c-0.263,0.275-0.59,0.481-0.982,0.618c-0.393,0.137-0.811,0.205-1.254,0.205c-0.412,0-0.803-0.062-1.174-0.184
		c-0.371-0.123-0.688-0.307-0.951-0.552s-0.462-0.543-0.599-0.895s-0.205-0.719-0.205-1.103c0-0.391,0.062-0.763,0.187-1.118
		s0.319-0.671,0.583-0.948c0.265-0.277,0.603-0.492,1.015-0.645C13.46,18.214,13.886,18.137,14.326,18.137z M14.326,19.234
		c-0.308,0-0.583,0.076-0.825,0.227c-0.243,0.151-0.423,0.375-0.542,0.674s-0.178,0.623-0.178,0.975
		c0,0.309,0.048,0.584,0.146,0.825c0.097,0.241,0.256,0.437,0.478,0.586s0.484,0.224,0.788,0.224c0.311,0,0.584-0.077,0.82-0.231
		s0.412-0.382,0.531-0.682c0.118-0.3,0.178-0.631,0.178-0.994c0-0.294-0.046-0.563-0.138-0.804c-0.092-0.241-0.247-0.435-0.464-0.58
		C14.902,19.307,14.637,19.234,14.326,19.234z"/>
	<path fill="#FFFFFF" d="M23.657,23.682c-0.294-0.007-0.523-0.011-0.687-0.011c-0.178,0-0.423,0.004-0.735,0.011l0.047-0.927
		c-0.156,0.202-0.29,0.358-0.402,0.469c-0.111,0.11-0.25,0.212-0.415,0.307c-0.165,0.094-0.344,0.164-0.535,0.21
		s-0.39,0.069-0.596,0.069c-0.341,0-0.66-0.063-0.958-0.187s-0.552-0.299-0.762-0.524s-0.364-0.493-0.463-0.805
		c-0.1-0.311-0.149-0.635-0.149-0.972c0-0.465,0.089-0.918,0.266-1.361c0.178-0.442,0.42-0.8,0.729-1.073
		c0.309-0.273,0.658-0.467,1.048-0.581c0.39-0.113,0.809-0.17,1.256-0.17c0.322,0,0.688,0.03,1.096,0.091
		c0.026-0.461,0.04-0.946,0.04-1.454v-0.362c0.334,0.007,0.59,0.011,0.768,0.011c0.23,0,0.49-0.003,0.778-0.011
		c-0.078,0.902-0.152,2.13-0.221,3.683C23.692,21.648,23.657,22.844,23.657,23.682z M22.342,19.24
		c-0.267-0.071-0.521-0.106-0.767-0.106c-0.281,0-0.549,0.039-0.805,0.117c-0.255,0.078-0.482,0.211-0.679,0.399
		c-0.197,0.188-0.349,0.43-0.455,0.725c-0.106,0.294-0.16,0.579-0.16,0.852s0.049,0.523,0.146,0.751
		c0.098,0.228,0.25,0.406,0.456,0.538c0.206,0.131,0.438,0.196,0.698,0.196c0.195,0,0.373-0.034,0.533-0.104
		c0.159-0.069,0.305-0.176,0.437-0.319c0.131-0.144,0.242-0.329,0.333-0.557c0.09-0.228,0.155-0.529,0.194-0.905
		C22.297,20.55,22.32,20.021,22.342,19.24z"/>
	<path fill="#FFFFFF" d="M29.808,22.473c-0.046,0.21-0.111,0.586-0.196,1.129c-0.384,0.082-0.707,0.137-0.97,0.165
		s-0.527,0.043-0.794,0.043c-0.465,0-0.881-0.046-1.249-0.139c-0.367-0.092-0.689-0.262-0.966-0.508
		c-0.277-0.247-0.481-0.549-0.613-0.907c-0.131-0.358-0.196-0.734-0.196-1.128c0-0.437,0.076-0.859,0.229-1.269
		s0.367-0.745,0.642-1.006c0.275-0.261,0.589-0.445,0.94-0.553c0.352-0.108,0.719-0.163,1.103-0.163
		c0.362,0,0.706,0.045,1.033,0.136c0.326,0.09,0.601,0.238,0.822,0.444c0.223,0.206,0.393,0.453,0.512,0.742
		c0.119,0.289,0.179,0.61,0.179,0.965c0,0.167-0.019,0.338-0.054,0.516l-3.903,0.005c-0.008,0.131-0.011,0.236-0.011,0.314
		c0,0.237,0.04,0.456,0.122,0.654c0.082,0.199,0.2,0.368,0.357,0.506c0.155,0.139,0.342,0.241,0.559,0.307s0.43,0.099,0.64,0.099
		c0.244,0,0.51-0.026,0.796-0.08C29.074,22.691,29.414,22.601,29.808,22.473z M26.367,20.321l2.493,0.005
		c0-0.169-0.006-0.295-0.017-0.376c-0.011-0.081-0.034-0.174-0.071-0.278c-0.038-0.104-0.088-0.196-0.152-0.276
		c-0.063-0.08-0.139-0.146-0.224-0.199c-0.085-0.053-0.184-0.094-0.296-0.122c-0.111-0.028-0.231-0.042-0.359-0.042
		c-0.148,0-0.294,0.023-0.434,0.069c-0.141,0.046-0.27,0.113-0.387,0.202s-0.212,0.188-0.284,0.297
		c-0.073,0.11-0.127,0.215-0.163,0.316C26.438,20.016,26.403,20.151,26.367,20.321z"/>
	<path fill="#FFFFFF" d="M32.87,18.265l-0.106,2.374l-0.074,2.379c-0.025,0.989-0.05,1.584-0.075,1.782
		c-0.031,0.256-0.079,0.454-0.144,0.597c-0.053,0.124-0.12,0.233-0.202,0.33c-0.085,0.096-0.191,0.183-0.319,0.261
		c-0.139,0.085-0.29,0.148-0.453,0.191c-0.23,0.057-0.5,0.085-0.81,0.085c-0.191,0-0.42-0.012-0.687-0.034
		c-0.267-0.023-0.566-0.068-0.9-0.136l-0.053-0.688l-0.054-0.458c0.366,0.124,0.701,0.187,1.007,0.187
		c0.159,0,0.306-0.022,0.439-0.066c0.133-0.045,0.245-0.104,0.338-0.179c0.063-0.057,0.119-0.124,0.165-0.202
		c0.074-0.131,0.131-0.292,0.168-0.484c0.037-0.191,0.075-0.665,0.114-1.42c0.028-0.575,0.051-1.247,0.068-2.018
		c0.028-1.004,0.042-1.676,0.042-2.017v-0.484c0.324,0.007,0.583,0.011,0.778,0.011C32.319,18.276,32.572,18.272,32.87,18.265z
		 M31.367,17.323c0.021-0.37,0.036-0.701,0.043-0.996c0.231,0.007,0.49,0.011,0.775,0.011c0.256,0,0.513-0.003,0.769-0.011
		l-0.031,0.506c0,0.018-0.008,0.181-0.021,0.49c-0.268-0.007-0.522-0.011-0.765-0.011C31.888,17.312,31.631,17.315,31.367,17.323z"
		/>
	<path fill="#FFFFFF" d="M33.866,23.58l-0.117-1.171c0.348,0.142,0.643,0.24,0.884,0.295c0.242,0.056,0.464,0.083,0.666,0.083
		s0.373-0.024,0.512-0.072s0.241-0.119,0.309-0.213s0.102-0.192,0.102-0.296c0-0.046-0.005-0.089-0.014-0.128
		s-0.024-0.079-0.048-0.122s-0.05-0.083-0.08-0.12s-0.072-0.08-0.125-0.128c-0.054-0.048-0.13-0.108-0.229-0.184l-0.287-0.229
		c-0.277-0.217-0.488-0.387-0.634-0.512c-0.146-0.124-0.269-0.251-0.367-0.38c-0.1-0.13-0.175-0.267-0.227-0.41
		c-0.052-0.144-0.077-0.291-0.077-0.439c0-0.259,0.079-0.506,0.236-0.74c0.158-0.234,0.389-0.406,0.69-0.514
		s0.656-0.163,1.064-0.163c0.466,0,1.002,0.055,1.608,0.166l0.069,1.113c-0.411-0.167-0.808-0.25-1.188-0.25
		c-0.206,0-0.386,0.02-0.54,0.061s-0.266,0.103-0.333,0.187s-0.102,0.177-0.102,0.279c0,0.061,0.011,0.12,0.032,0.179
		s0.059,0.12,0.111,0.184c0.054,0.064,0.115,0.125,0.185,0.181c0.068,0.057,0.214,0.168,0.434,0.335s0.413,0.318,0.578,0.453
		c0.165,0.135,0.301,0.271,0.407,0.407s0.188,0.283,0.245,0.439s0.085,0.314,0.085,0.474c0,0.267-0.082,0.514-0.245,0.74
		c-0.163,0.228-0.41,0.405-0.74,0.533c-0.33,0.127-0.699,0.191-1.107,0.191c-0.213,0-0.473-0.017-0.777-0.051
		C34.541,23.725,34.214,23.666,33.866,23.58z"/>
</g>
</svg>
