<?xml version="1.0" encoding="utf-8"?>
<!-- Generator: Adobe Illustrator 14.0.0, SVG Export Plug-In . SVG Version: 6.00 Build 43363)  -->
<!DOCTYPE svg PUBLIC "-//W3C//DTD SVG 1.1//EN" "http://www.w3.org/Graphics/SVG/1.1/DTD/svg11.dtd">
<svg version="1.1" id="图层_1" xmlns="http://www.w3.org/2000/svg" xmlns:xlink="http://www.w3.org/1999/xlink" x="0px" y="0px"
	 width="40px" height="40px" viewBox="0 0 40 40" enable-background="new 0 0 40 40" xml:space="preserve">
<g id="XMLID_1_">
	
		<linearGradient id="svg_php" gradientUnits="userSpaceOnUse" x1="0.7603" y1="23.1943" x2="39.2393" y2="16.8052" gradientTransform="matrix(0.8134 -0.5817 0.5817 0.8134 -7.9014 15.3659)">
		<stop  offset="0" style="stop-color:#321E96"/>
		<stop  offset="0.4727" style="stop-color:#140064"/>
		<stop  offset="0.5091" style="stop-color:#4E2684"/>
	</linearGradient>
	<circle fill="url(#svg_php)" cx="20" cy="20" r="19.5"/>
</g>
<g>
	<path fill="#FFFFFF" d="M5.713,27c0.135-1.5,0.256-3.445,0.364-5.833c0.108-2.389,0.162-4.328,0.162-5.817
		c1.022-0.183,1.813-0.304,2.372-0.363c0.559-0.059,1.116-0.089,1.67-0.089c0.726,0,1.392,0.086,1.997,0.258
		c0.605,0.172,1.089,0.46,1.452,0.863c0.363,0.403,0.632,0.872,0.807,1.404c0.174,0.533,0.262,1.089,0.262,1.67
		c0,0.586-0.083,1.151-0.25,1.694c-0.167,0.543-0.422,1.032-0.766,1.464S13.04,23,12.585,23.196s-0.95,0.294-1.488,0.294
		c-0.317,0-0.63-0.037-0.939-0.112c-0.309-0.076-0.581-0.175-0.814-0.299c-0.234-0.124-0.426-0.249-0.577-0.375
		c-0.15-0.127-0.341-0.316-0.572-0.569l-0.123,3.51l-0.008,0.549C8.059,26.264,8.056,26.532,8.056,27
		c-0.495-0.005-0.877-0.008-1.147-0.008L5.713,27z M8.465,16.834c-0.038,0.291-0.065,0.541-0.082,0.75L8.334,18.48
		c-0.021,0.386-0.032,0.671-0.032,0.853c0,0.328,0.034,0.642,0.101,0.942c0.067,0.301,0.202,0.577,0.404,0.83
		c0.202,0.252,0.442,0.443,0.72,0.575s0.565,0.197,0.861,0.197c0.41,0,0.783-0.117,1.12-0.351s0.597-0.576,0.78-1.027
		c0.184-0.451,0.275-0.932,0.275-1.442c0-0.564-0.101-1.041-0.303-1.43c-0.202-0.389-0.473-0.672-0.812-0.85
		c-0.34-0.177-0.725-0.266-1.156-0.266C9.731,16.511,9.123,16.619,8.465,16.834z"/>
	<path fill="#FFFFFF" d="M16.186,23.297l0.193-2.622l0.192-3.752l0.112-4.64c0.474,0.011,0.867,0.016,1.18,0.016
		c0.409,0,0.799-0.005,1.171-0.016l-0.146,1.92c-0.032,0.474-0.076,1.234-0.129,2.284c0.172-0.258,0.316-0.452,0.432-0.581
		c0.116-0.129,0.245-0.249,0.387-0.359c0.143-0.11,0.289-0.203,0.44-0.278c0.15-0.075,0.327-0.142,0.529-0.202
		c0.202-0.059,0.426-0.105,0.674-0.137c0.247-0.032,0.5-0.048,0.759-0.048c0.446,0,0.875,0.051,1.286,0.153
		c0.412,0.103,0.768,0.274,1.065,0.517c0.299,0.242,0.503,0.526,0.613,0.851c0.11,0.326,0.166,0.666,0.166,1.021
		c0,0.231-0.014,0.592-0.041,1.082l-0.195,3.526c-0.017,0.365-0.024,0.788-0.024,1.267c-0.436-0.011-0.82-0.017-1.153-0.017
		c-0.359,0-0.771,0.006-1.232,0.017c0.074-0.635,0.147-1.501,0.22-2.598c0.071-1.097,0.107-1.877,0.107-2.34
		c0-0.425-0.068-0.757-0.205-0.997c-0.138-0.239-0.339-0.417-0.604-0.532s-0.557-0.173-0.874-0.173
		c-0.408,0-0.768,0.072-1.079,0.218c-0.301,0.14-0.553,0.35-0.757,0.629c-0.166,0.231-0.306,0.562-0.418,0.992
		c-0.118,0.452-0.204,1.151-0.258,2.098c-0.027,0.457-0.058,1.358-0.09,2.703c-0.425-0.011-0.792-0.017-1.099-0.017
		C17.115,23.28,16.708,23.286,16.186,23.297z"/>
	<path fill="#FFFFFF" d="M26.611,27c0.135-1.5,0.256-3.445,0.363-5.833c0.108-2.389,0.162-4.328,0.162-5.817
		c1.022-0.183,1.813-0.304,2.372-0.363c0.559-0.059,1.116-0.089,1.67-0.089c0.726,0,1.392,0.086,1.996,0.258
		c0.605,0.172,1.089,0.46,1.452,0.863s0.632,0.872,0.807,1.404c0.175,0.533,0.263,1.089,0.263,1.67c0,0.586-0.083,1.151-0.25,1.694
		s-0.422,1.032-0.767,1.464c-0.344,0.433-0.743,0.748-1.197,0.944s-0.949,0.294-1.487,0.294c-0.317,0-0.63-0.037-0.939-0.112
		c-0.309-0.076-0.58-0.175-0.814-0.299c-0.233-0.124-0.426-0.249-0.576-0.375c-0.15-0.127-0.342-0.316-0.572-0.569l-0.123,3.51
		l-0.008,0.549c-0.006,0.07-0.009,0.339-0.009,0.807c-0.495-0.005-0.878-0.008-1.146-0.008L26.611,27z M29.362,16.834
		c-0.038,0.291-0.065,0.541-0.082,0.75l-0.049,0.896c-0.021,0.386-0.032,0.671-0.032,0.853c0,0.328,0.033,0.642,0.101,0.942
		c0.067,0.301,0.202,0.577,0.404,0.83c0.202,0.252,0.442,0.443,0.721,0.575c0.277,0.132,0.564,0.197,0.861,0.197
		c0.409,0,0.782-0.117,1.119-0.351c0.338-0.233,0.598-0.576,0.781-1.027c0.183-0.451,0.274-0.932,0.274-1.442
		c0-0.564-0.101-1.041-0.303-1.43c-0.202-0.389-0.473-0.672-0.813-0.85s-0.725-0.266-1.156-0.266
		C30.629,16.511,30.02,16.619,29.362,16.834z"/>
</g>
</svg>
