<?xml version="1.0" encoding="utf-8"?>
<!-- Generator: Adobe Illustrator 14.0.0, SVG Export Plug-In . SVG Version: 6.00 Build 43363)  -->
<!DOCTYPE svg PUBLIC "-//W3C//DTD SVG 1.1//EN" "http://www.w3.org/Graphics/SVG/1.1/DTD/svg11.dtd">
<svg version="1.1" id="图层_1" xmlns="http://www.w3.org/2000/svg" xmlns:xlink="http://www.w3.org/1999/xlink" x="0px" y="0px"
	 width="40px" height="40px" viewBox="0 0 40 40" enable-background="new 0 0 40 40" xml:space="preserve">
<g id="XMLID_1_">
	<linearGradient id="svg_ps" gradientUnits="userSpaceOnUse" x1="20.0005" y1="39.501" x2="20.0005" y2="0.4995">
		<stop  offset="0" style="stop-color:#0A3C78"/>
		<stop  offset="1" style="stop-color:#2B9ADA"/>
	</linearGradient>
	<circle fill="url(#svg_ps)" cx="20" cy="20" r="19.5"/>
</g>
<g>
	<path fill="#13B4E5" d="M20.885,15.188c0,0.862-0.171,1.651-0.513,2.367c-0.342,0.717-0.855,1.335-1.539,1.854
		c-0.684,0.52-1.541,0.923-2.571,1.208c-1.031,0.286-2.234,0.434-3.611,0.442v7.334H9.885v-18.18h3.709
		c1.068,0,2.046,0.082,2.936,0.246c0.89,0.164,1.658,0.44,2.304,0.829c0.646,0.389,1.15,0.899,1.51,1.532
		C20.705,13.453,20.885,14.242,20.885,15.188z M18.033,15.329c0-0.478-0.082-0.89-0.246-1.236c-0.164-0.347-0.424-0.632-0.78-0.857
		c-0.356-0.225-0.813-0.391-1.37-0.499c-0.557-0.107-1.229-0.162-2.016-0.162h-0.969v6.098h0.885c1.414,0,2.517-0.283,3.309-0.85
		C17.638,17.256,18.033,16.424,18.033,15.329z"/>
	<path fill="#13B4E5" d="M31.1,25.149c0,0.496-0.087,0.957-0.261,1.384c-0.173,0.426-0.436,0.796-0.786,1.109
		c-0.352,0.314-0.792,0.561-1.321,0.738s-1.149,0.267-1.861,0.267c-0.693,0-1.349-0.087-1.967-0.26
		c-0.618-0.174-1.143-0.419-1.573-0.737v-2.333c0.243,0.169,0.513,0.333,0.808,0.492s0.598,0.297,0.906,0.414
		s0.613,0.211,0.913,0.281s0.576,0.105,0.829,0.105c0.608,0,1.054-0.131,1.335-0.394c0.28-0.262,0.421-0.581,0.421-0.955
		c0-0.197-0.028-0.372-0.084-0.527c-0.057-0.154-0.162-0.3-0.316-0.436s-0.37-0.269-0.646-0.4c-0.276-0.131-0.63-0.271-1.061-0.421
		c-0.59-0.216-1.084-0.442-1.481-0.682c-0.398-0.238-0.717-0.501-0.956-0.787c-0.238-0.285-0.409-0.594-0.513-0.927
		c-0.103-0.333-0.154-0.696-0.154-1.089c0-0.506,0.11-0.967,0.33-1.384c0.22-0.417,0.52-0.775,0.899-1.075
		c0.379-0.3,0.823-0.531,1.334-0.695s1.057-0.246,1.637-0.246c0.524,0,1.04,0.052,1.546,0.155s0.997,0.281,1.476,0.534v2.107
		c-0.46-0.206-0.944-0.377-1.455-0.513c-0.51-0.136-1.014-0.204-1.51-0.204c-0.581,0-1.019,0.122-1.313,0.365
		s-0.442,0.553-0.442,0.927c0,0.159,0.03,0.309,0.091,0.45c0.061,0.14,0.166,0.276,0.316,0.407c0.149,0.131,0.355,0.265,0.618,0.401
		c0.262,0.136,0.595,0.273,0.997,0.414c0.563,0.197,1.047,0.405,1.454,0.625c0.408,0.221,0.745,0.467,1.012,0.738
		s0.464,0.583,0.59,0.934C31.036,24.285,31.1,24.69,31.1,25.149z"/>
</g>
</svg>
