<?xml version="1.0" encoding="utf-8"?>
<!-- Generator: Adobe Illustrator 14.0.0, SVG Export Plug-In . SVG Version: 6.00 Build 43363)  -->
<!DOCTYPE svg PUBLIC "-//W3C//DTD SVG 1.1//EN" "http://www.w3.org/Graphics/SVG/1.1/DTD/svg11.dtd">
<svg version="1.1" id="图层_1" xmlns="http://www.w3.org/2000/svg" xmlns:xlink="http://www.w3.org/1999/xlink" x="0px" y="0px"
	 width="400px" height="400px" viewBox="0 0 400 400" enable-background="new 0 0 400 400" xml:space="preserve">
<path fill-rule="evenodd" clip-rule="evenodd" fill="none" stroke="#4D4446" stroke-width="0.75" d="M20.895,400.498
	c0,0,4.1-13.82-1.508-21.092c-5.704-7.395,0.548-25.051,1.005-32.641c0.391-6.473,9.771-19.76,11.06-26.613
	c1.566-8.33-1.38-19.479,7.508-41.402c1.046-2.58-1.379-5.686,8.076-12.83c12.434-9.396,18.899-9.451,21.617-11.551
	c2.762-2.133,9.245-11.389,13.071-12.553c7.248-2.205,12.822-1.412,15.082-2.01c1.633-0.43,4.174-1.871,7.333-2.742
	c2.94-0.809,4.767-2.314,8.251-3.283c1.132-0.314,5.891-1.164,8.601-3.295c1.987-1.563,5.305-1.945,5.978-2.73
	c1.765-2.057,8.129-12.742,12.066-15.566c1.18-0.848,2.033-2.887,2.01-3.516c-0.022-0.629,0.391-7.025-1.005-11.048
	c-0.774-2.233-1.935-1.612-3.519-1.506c-1.228,0.083-2.789-0.953-3.52-1.506c-0.723-0.546-4.331-4.608-5.027-6.528
	c-0.623-1.718-1.486-4.305,0.089-8.999c0.915-2.724,1.112-5.853,0.917-7.572c-0.235-2.061-1.898-10.255,2.514-12.554
	c1.182-0.616,0.289-1.792,0-2.511c-0.29-0.718-0.64-1.837-0.503-2.511c0.136-0.673-1.222-0.882-1.006-2.008
	c0.216-1.127,0.786-1.743,0-3.515s-1.685-3.263-0.503-5.021c0.932-1.386-0.974-1.666-1.508-2.511
	c-0.534-0.845,1.984-1.304,2.514-1.506c0.529-0.202,1.313-1.38,0-2.008c-1.282-0.614-0.57-1.794-0.938-2.862
	c-0.404-1.17-0.686-2.465-0.068-3.164c0.947-1.072,0.56-2.135,0-4.018c-0.559-1.882,0.168-0.67,1.006-2.511
	c0.837-1.84,0.069-3.27,1.508-4.52c1.439-1.249,2.215-3.479,3.52-5.021c1.305-1.542,1.601-2.943,3.52-5.523
	c1.918-2.581,3.733-5.936,6.535-8.537c2.801-2.601,7.145-1.894,10.054-3.013c1.468-0.564,3.649-1.961,5.53-2.511
	c1.846-0.539,3.387-0.229,5.529-1.004c4.327-1.565,5.691-2.073,8.044-2.511c2.353-0.438,6.859-0.113,10.055,0
	c1.892,0.067,4.836,0.673,8.044,1.004c2.491,0.258,4.564,2.042,5.529,2.511c2.365,1.148,5.07,1.913,6.033,2.009
	c1.076,0.107,2.928,0.921,4.523,2.009c1.581,1.077,3.725,2.606,5.027,3.515c2.617,1.827,5.326,3.563,6.033,4.018
	c0.707,0.454,4.4,3.787,5.027,4.519c0.625,0.732,2.909,3.854,4.021,5.022c1.111,1.168,2.002,1.465,2.514,2.511
	c0.511,1.045,0.383,2.568,1.006,3.013s-0.068,1.391,1.005,2.511c0.626,0.652,1.304,1.055,1.508,2.009
	c0.147,0.684-0.134,1.912,0,2.511c0.321,1.434,1.417,2.758,0.503,6.026c-0.621,2.221,1.431,1.533,0.503,4.017
	c-0.929,2.484,0.288,1.859-0.503,5.524c-0.791,3.665-2.104,2.477-1.508,5.021c0.594,2.544,0.503,2.135,0,5.021
	c-0.504,2.887-1.049,5.262-1.508,7.03c-0.203,0.775-0.378,1.82-0.504,2.511c-0.125,0.69-1.186,1.422-2.01,2.511
	c0.972-1.039,1.619-0.921,1.988-0.572c1.073,1.011,0.391,2.869,0.021,4.589c-0.367,1.717-0.869,2.44-1.011,3.611
	c-0.304,2.494,1.029,5.088,1.011,7.436c-0.008,1.024,0.744,6.041,0,9.039c-0.961,3.874-3.225,6.249-4.523,7.03
	c-2.934,1.763-2.493,1.77-3.52,6.026c-0.434,1.797-1.875,5.945-4.524,10.043c-2.468,3.816-8.479,9.225-11.563,12.555
	c-1.849,1.996-0.581,3.504,0,5.021c0.581,1.516,1.906,1.807,2.514,8.537c0.073,0.814,1.166,1.582,2.011,2.51
	c1.035,1.137,1.308,2.176,2.514,2.512c1.109,0.307,5.922,2.041,8.043,2.51c1.026,0.227,5.855,1.094,11.061,3.014
	c2.792,1.029,5.957,3.828,13.573,6.527c4.368,1.549,11.28,4.303,13.573,7.029c2.293,2.729,2.724,7.416,2.514,10.045
	c-0.129,1.605,2.662,2.879,3.016,7.531c0.355,4.652,5.828,7.059,7.039,8.035s5.954,3.563,5.529,9.039
	c-0.424,5.475-2.127,4.658-1.508,8.033c0.328,1.785,1.56,4.959,3.016,7.533c1.299,2.293,2.611,4.043,3.52,6.025
	c1.793,3.912,3.11,5.443,3.52,9.039c0.408,3.596,1.551,5,2.514,6.527c0.961,1.527,1.145,2.588,2.01,3.014s1.757,0.344,3.018,1.506
	c2.947,2.717,3.49,8.502,4.523,10.043c1.035,1.543,9.728,9.928,13.574,17.576c1.736,3.455,2.848,7.098,3.441,10.318
	c0.722,3.912,0.299,7.102,0.077,8.764c-0.191,1.438,0.052,1.457,0.503,2.51c0.45,1.055,3.054,5.16,4.524,10.043"/>
<path fill-rule="evenodd" clip-rule="evenodd" fill="none" stroke="#4D4446" stroke-width="0.75" d="M225.501,198.63
	c0.561-2.331,0.852-4.211,1.174-6.362c0.344-2.305,0.287-3.464,1.843-6.192c1.554-2.727,2.315-5.677,2.011-6.528
	c-0.305-0.851-2.084-1.849-2.011-4.017c0.192-5.713-0.322-14.075-1.005-19.584c-0.684-5.509-2.311-10.142-4.022-17.576
	c-1.501-6.515-3.948-9.219-7.038-12.554c-5.041-5.441-10.127-7.933-14.578-9.541c-4.453-1.608-9.685-2.248-21.115-2.511
	c-11.43-0.262-12.379,2.067-17.092,3.515c-1.744,0.536-5.252,1.994-7.541,3.515c-3.898,2.591-5.943,4.91-7.541,8.035
	c-1.001,1.958-3.42,6.122-5.085,10.573c-1.534,4.103-3.015,8.359-3.964,11.019c-1.979,5.546-0.914,18.404-2.011,18.078
	c-1.097-0.326-3.464-7.512-4.022-7.03c-0.557,0.482,0.844,3.936,0.504,5.523c-0.341,1.588-1.41,4.12-2.012,6.026
	c-1.407,4.464-1.785,8.882,0.503,9.541s2.284-1.765,3.017-3.515c1.476-3.53,1.467-7.973,2.011-8.537c0.165-0.172,0,5.524,0,5.524
	s-0.351,4.63,0,7.03s1.565,7.708,2.011,10.545"/>
<path fill-rule="evenodd" clip-rule="evenodd" fill="none" stroke="#4D4446" stroke-width="0.75" d="M140.542,212.189
	c-1.814,1.574-4.098,3.83-4.021,6.025c0.644,18.674,9.373,26.869,17.595,33.143c8.29,6.326,20.44,14.828,19.606,16.068
	c-0.235,0.35-0.873-0.564-2.514,0.502s-3.259,5.828-6.033,13.559s-3.428,5.184-8.546,0.502
	c-7.323-6.697-16.901-16.482-21.617-23.602c-5.231-7.896-8.372-13.27-8.546-15.566c-4.106,1.072-8.756,5.107-10.055,6.527
	c-1.299,1.422-1.219,4.242-28.152,18.58c-1.793,0.955-3.562-0.611-5.529-1.004c-2.988-0.598-4.248-1.807-8.044,1.506
	c-3.796,3.314-8.407,6.77-10.055,7.533s-0.304,1.584,0.503,2.51c0.453,0.521,5.614,7.656,11.06,17.576
	c4.37,7.959,8.417,19.582,9.552,24.104"/>
<path fill-rule="evenodd" clip-rule="evenodd" fill="none" stroke="#4D4446" stroke-width="0.75" d="M63.123,275.963
	c0,0-9.46-9.064-13.574-9.541s-7.104,3.707-6.033,4.52c1.072,0.811,9.866,8.17,17.58,18.506
	c6.402,8.574,18.386,21.934,23.643,35.225c5.095,12.879,5.976,15.123,6.535,18.078c0.74,3.895-7.334-15.867-13.07-19.082
	c-5.332-2.988-16.001-5.818-15.082-2.01c0.919,3.809,7.598,8.535,10.557,11.049c2.959,2.512,9.938,7.543,11.563,9.037
	c1.623,1.496,8.722,7.461,10.054,9.039s1.78,3.299,1.005,6.529c-0.775,3.229-1.453,5.387-1.508,7.531"/>
<path fill-rule="evenodd" clip-rule="evenodd" fill="none" stroke="#4D4446" stroke-width="0.75" d="M46.533,306.594
	c0,0,10.869,10.07,16.087,20.086c5.218,10.018,12.459,12.279,16.087,16.07c3.628,3.791,6.611,9.814,5.53,11.047
	c-1.082,1.23-7.244-3.23-12.568-2.01c-8.362,1.918-13.054,4.965-22.12,6.027s-9.506-0.691-14.076-3.516s-6.589-5.771-8.043-8.537"/>
<path fill-rule="evenodd" clip-rule="evenodd" fill="none" stroke="#4D4446" stroke-width="0.75" d="M86.751,346.264
	c0,0,1.043,5.752,4.982,13.348c2.498,4.816,3.476,10.531,3.563,13.77c0.089,3.275-4.669-0.777-12.065,0
	c-7.396,0.777-20.974,2.393-30.666,3.516c-9.692,1.123-14.358,2.037-18.601,1.004"/>
<path fill-rule="evenodd" clip-rule="evenodd" fill="none" stroke="#4D4446" stroke-width="0.75" d="M126.466,258.387
	c0.012,0.023,3.565,6.42,8.875,17.773c3.908,8.359,4.65,15.615,4.698,23.906c0.077,13.129-1.392,19.898-6.032,38.164"/>
<path fill-rule="evenodd" clip-rule="evenodd" fill="none" stroke="#4D4446" stroke-width="0.75" d="M97.308,303.078
	c0,0,20.793,20.32,25.137,32.139c4.343,11.818-0.043,10.65-8.547,26.615"/>
<path fill-rule="evenodd" clip-rule="evenodd" fill="none" stroke="#4D4446" stroke-width="0.75" d="M142.05,206.162
	c0,0,6.889,16.914,22.119,27.619c7,4.92,12.891,5.809,19.606,5.523c7.835-0.332,15.001-3.729,21.617-10.043"/>
<path fill-rule="evenodd" clip-rule="evenodd" fill="none" stroke="#4D4446" stroke-width="0.75" d="M174.224,267.928
	c0,0,2.707,2.502,5.224,4.719c1.741,1.533,1.894,2.885,1.814,4.32c-0.068,1.258,0.725-1.48,3.017-2.51
	c2.291-1.031,6.443-2.941,7.541-4.018c1.098-1.078,6.797-4.971,6.032-17.074c-0.073-1.154,0.378-2.273,1.005-4.018
	c1.436-3.99,5.721-13.637,7.039-18.578c0.383-1.438,0.87-0.264,1.005,0.502c0.071,0.398,2.581,9.359,1.509,18.076
	c-0.979,7.951-6.996,15.197-8.044,16.07c1.339,0.867,5.356,3.986,2.354,7.791c-0.994,1.26-1.986,2.32-5.873,3.256
	c-0.893,0.215-1.204,0.445-2.012,1.506c-0.707,0.93-1.353,3.201-1.508,5.021c-0.104,1.23,1.469,0.77,1.508-0.502
	c0.026-0.844,0.145-2.666,1.006-3.012c0.86-0.346,1.014-0.719,2.011-1.508c1.802-1.426,3.913-0.891,6.032-4.018
	c1.667-2.457,2.781-8.162,6.033-19.08c0.936-3.145,0.788-8.988,1.006-10.547c0.217-1.559,2.279,0.609,3.016,2.01
	c0.736,1.398,6.393,11.092,7.541,17.574c1.148,6.484,4.336,15.791,6.033,20.088"/>
<path fill-rule="evenodd" clip-rule="evenodd" fill="none" stroke="#4D4446" stroke-width="0.75" d="M131.995,388.947
	c0,0-15.342-4.203-22.119-2.008c-6.778,2.195-13.912,6.492-16.088,11.549c-2.174,5.059-3.646-8.029,3.018-14.061
	c6.662-6.029,15.936-18.217,18.6-21.09c2.666-2.875,12.199-12.646,20.611-16.572c0.98-0.457-0.748-0.93,1.006-1.506
	s12.726-8.963,14.076-10.043c0.967-0.773,3.973,0.768,4.524,1.004c0.714,0.307,1.202,0.076,1.509-1.004
	c0.5-1.764,0.435-4.707,1.508-6.527c1.73-2.938,4.127-5.576,6.535-6.529c2.372-0.938,9.619-3.572,12.568-4.016
	c2.948-0.445,4.053,0.918,4.524,1.506c0.471,0.586,1.06-0.25,1.508-0.502c0.448-0.254,11.589-10.004,17.093-13.559
	c4.563-2.947,2.858-2.18,6.535-2.008c3.677,0.17,3.675,1.816,5.027,5.523s1.166,2.857,3.016,3.012
	c1.851,0.154,6.831-0.527,9.049,0.502c2.219,1.031,9.105,6.945,10.558,8.537c0.628,0.689,3.483,2.375,5.027,8.035
	c2.489,9.123,6.499,18.654,8.546,26.613c0.365,1.418,1.676,1.135,2.514,1.006c0.838-0.131,5.711,0.016,11.061,3.012
	c1.826,0.787,2.541,0.59,4.523,1.506c1.984,0.918,3.59,3.697,4.525,4.52c0.595,0.525,3.184,2.301,4.021,5.021
	c0.545,1.771,0.981,3.041,1.006,6.529c0.006,0.887,1.811,1.732,2.514,2.51c0.767,0.85,1.145,1.732,1.508,3.516
	s0.172,1.957,2.011,4.52s0.872,5.359,1.005,7.533c0.134,2.172,0.504,4.518,0.504,4.518"/>
<path fill-rule="evenodd" clip-rule="evenodd" fill="none" stroke="#4D4446" stroke-width="0.75" d="M126.968,401
	c0,0,2.209-7.461,5.53-11.049c3.321-3.586,11.542-16.66,16.087-22.094c4.546-5.436,5.943-13.484,12.568-22.096
	s5.193-10.307,20.108-17.072c14.915-6.768,13.399-8,22.12-11.551s10.32-3.994,12.568-3.012c2.246,0.982,4.619,6.598,5.529,12.051
	c0.91,5.455,1.779,7.629,2.011,8.537s-3.45-3.703-15.584,0.502s-24.223,11.236-37.202,32.139
	c-12.979,20.9-17.754,30.371-18.6,33.143"/>
<path fill-rule="evenodd" clip-rule="evenodd" fill="none" stroke="#4D4446" stroke-width="0.75" d="M180.759,401
	c0,0,14.201-31.209,26.142-39.168c11.941-7.961,19.948-5.939,25.64-5.525c5.691,0.416,10.123,0.691,12.567,1.508
	s3.289-0.164,2.011-1.004c-0.58-0.383-3.542-2.824-6.535-7.533c-3.602-5.666-7.358-13.918-8.547-16.57
	c-2.176-4.859-3.729-8.016-3.519-14.563c3.634,3.902,6.976,7.76,8.546,10.545"/>
<path fill-rule="evenodd" clip-rule="evenodd" fill="none" stroke="#4D4446" stroke-width="0.75" d="M156.126,399.994
	c0,0,15.609-27.316,22.623-35.15c7.012-7.834,9.574-18.922,36.697-28.623c3.252-1.162,7.662-0.697,9.553-0.502
	c3.828,0.395,3.274,1.951,3.519,2.512c0.364,0.838,1.339,4.668,2.011,6.527s-5.18-2.174-11.06-1.004
	c-5.88,1.168-17.11-0.943-30.163,20.588s-17.938,33.406-18.602,36.156"/>
<path fill-rule="evenodd" clip-rule="evenodd" fill="none" stroke="#4D4446" stroke-width="0.75" d="M212.431,254.873
	c0,0,7.453,3.207,7.541,14.059c0.086,10.854-5.318,8.264-3.017,42.182"/>
<path fill-rule="evenodd" clip-rule="evenodd" fill="none" stroke="#4D4446" stroke-width="0.75" d="M230.026,315.633
	c0,0,19.244-34.092,24.13-34.146c5.388-0.061-6.147,6.262-10.054,29.627"/>
<path fill-rule="evenodd" clip-rule="evenodd" fill="none" stroke="#4D4446" stroke-width="0.75" d="M241.085,302.576
	c0,0-0.354,17.32,0,26.113c0.055,1.357,5.669-6.494,14.076-11.551c5.627-3.383,16.747-12.521,19.104-14.061
	c4.568-2.98,2.46-7.73,2.012-9.037"/>
<path fill-rule="evenodd" clip-rule="evenodd" fill="none" stroke="#4D4446" stroke-width="0.75" d="M262.702,280.984
	c0,0-2.26,4.125-2.514,8.537c-0.252,4.412-1.819,5.105-4.021,8.535c-2.201,3.43-3.664,7.836-7.541,17.074
	c-1.344,3.203-3.85,6.465-5.027,8.537c-1.176,2.072-0.148,1.756,6.033-4.52s11.785-13.893,15.082-17.576
	c3.296-3.684,7.057-6.67,8.043-6.025c0.598,0.391,0.419,1.734-1.006,3.014"/>
<path fill-rule="evenodd" clip-rule="evenodd" fill="none" stroke="#4D4446" stroke-width="0.75" d="M276.778,303.078
	c0,0-5.524,6.434-5.529,8.035c-0.006,1.602,1.7,2.014,2.514,2.512c0.813,0.498,5.672,3.932,4.523-2.01"/>
<path fill-rule="evenodd" clip-rule="evenodd" fill="none" stroke="#4D4446" stroke-width="0.75" d="M269.237,313.625
	c0,0,7.496,4.398,9.553,5.523c2.055,1.123,1.887,3.965-2.514,4.018c-4.402,0.051-9.35,0.854-5.53,3.012s1.499,3.424-1.509,4.52
	c-3.006,1.096-22.956,6.91-24.13,8.035"/>
<path fill-rule="evenodd" clip-rule="evenodd" fill="none" stroke="#4D4446" stroke-width="0.75" d="M284.822,328.689
	c0,0-4.026-1.195-11.563,3.514c-7.536,4.711-14.249,13.289-13.071,17.576s4.762,4.635,6.535,4.52
	c1.775-0.115,3.471-3.064,5.531-4.018c2.06-0.951,4.377,2.34,11.563-2.51c3.947-2.666,4.192-6.039,8.043-6.529
	c3.851-0.488,3.119,3.434-1.508,6.529c-3.963,2.648-21.509,10.256-25.639,12.051"/>
<path fill-rule="evenodd" clip-rule="evenodd" fill="none" stroke="#4D4446" stroke-width="0.75" d="M276.778,370.869
	c0,0,6.426-0.359,7.541,2.512c1.115,2.869-5.236,3.4-6.033,4.018"/>
<path fill-rule="evenodd" clip-rule="evenodd" fill="none" stroke="#4D4446" stroke-width="0.75" d="M280.8,380.912
	c0,0,22.333-13.248,33.683-4.518c2.394,1.84,2.72,11.313,1.509,10.545c-1.211-0.77-3.982-9.521-9.049-10.545
	c-5.067-1.025-17.241,1.186-23.125,6.527"/>
<path fill-rule="evenodd" clip-rule="evenodd" fill="none" stroke="#4D4446" stroke-width="0.75" d="M290.353,386.939
	c0,0-4.268,2.203-5.53,4.52s-1.373,4.721,0.503,4.018c1.875-0.705,10.048-4.551,26.645-2.512"/>
<path fill-rule="evenodd" clip-rule="evenodd" fill="none" stroke="#4D4446" stroke-width="0.75" d="M199.862,266.422
	c0,0-1.102,2.781-4.021,5.021s-9.713,2.014-12.568,7.029c-2.855,5.018-3.229,6.309-4.523,9.541c-1.295,3.232-4.444,6.16-3.52,29.125
	"/>
<path fill-rule="evenodd" clip-rule="evenodd" fill="none" stroke="#4D4446" stroke-width="0.75" d="M157.641,277.479
	c0,0,0.459-2.186,2.507-2.018c2.453,0.201,2.567,2.271,2.514,3.012c-0.053,0.742-0.905,2.344-3.016,2.01
	C158.084,280.234,157.589,278.674,157.641,277.479z"/>
<path fill-rule="evenodd" clip-rule="evenodd" fill="none" stroke="#4D4446" stroke-width="0.75" d="M181.262,292.031
	c1.317,0.133,2.073,1.207,2.011,3.516s-1.01,3.529-2.514,3.516c-1.486-0.014-2.037-1.508-2.01-3.516
	C178.771,293.898,179.388,291.906,181.262,292.031z"/>
<path fill-rule="evenodd" clip-rule="evenodd" fill="none" stroke="#4D4446" stroke-width="0.75" d="M151.099,151.93
	c0.408-0.283,3.476-3.983,8.547-3.515c5.07,0.468,11.613,2.589,15.081,3.013c2.297,0.281,1.797,2.482-1.005,2.511
	c-6.205,0.063-9.002-0.959-12.568-1.004c-3.566-0.044-6.244,0.829-9.049,0.502C149.299,153.109,150.69,152.212,151.099,151.93z"/>
<path fill-rule="evenodd" clip-rule="evenodd" fill="none" stroke="#4D4446" stroke-width="0.75" d="M220.474,154.943
	c0,0-0.761-2.319-4.021-3.013c-3.261-0.694-11.008,0.179-15.082,0c-4.072-0.179-2.262,3.026,0,3.013
	c7.956-0.046,10.091,0.427,13.574,1.004C218.72,156.573,222.218,158.155,220.474,154.943z"/>
<path fill-rule="evenodd" clip-rule="evenodd" fill="none" stroke="#4D4446" stroke-width="0.75" d="M152.104,164.986
	c0,0,4.575-3.265,10.055-3.515c4.363-0.199,7.627-0.252,8.545,0.502c0.919,0.753,2.864,1.887,3.798,3.992
	c0.397,0.899-0.92,0.262-1.284,0.025c-0.635-0.413-3.14,0.555-6.031,0.502c-0.674-0.012,0.143-0.321,0.502-0.502
	c0.439-0.221,1.475-2.514,0.503-4.017"/>
<path fill-rule="evenodd" clip-rule="evenodd" fill="none" stroke="#4D4446" stroke-width="0.75" d="M156.126,163.982
	c0,0,3.5,2.319,7.038,2.511c0.903,0.049,0.449-0.167-0.266-0.494c-0.556-0.254-1.343-1.221-1.243-3.523"/>
<path fill-rule="evenodd" clip-rule="evenodd" fill="none" stroke="#4D4446" stroke-width="0.75" d="M219.469,167.999
	c0,0-3.493-3.484-8.044-4.017c-4.55-0.534-6.258-0.488-7.541-0.502c-1.282-0.015-3.01,0.443-5.529,3.515
	c-0.389,0.516,0.493,0.333,1.006,0c0.79-0.513,2.08,0.888,4.523,1.004c0.627,0.03,0.141-0.362,0-0.502
	c-0.295-0.296-1.082-1.326-0.502-3.013"/>
<path fill-rule="evenodd" clip-rule="evenodd" fill="none" stroke="#4D4446" stroke-width="0.75" d="M209.917,164.484
	c0,0,0.551,1.91-0.503,3.013c-0.487,0.51,0.643,0.526,1.006,0.502c0.362-0.023,2.778-0.259,4.021-1.506"/>
<path fill-rule="evenodd" clip-rule="evenodd" fill="none" stroke="#4D4446" stroke-width="0.75" d="M177.24,183.063
	c0,0-4.17,3.882-4.022,7.021c0.148,3.139,1.44,4.099,4.298,4.012c0.988-0.03,0.104-1.694,3.319-1.504s1.528,2.298,5.691,2.507
	c4.004,0.201,1.777-1.826,6.166-2.006c2.527-0.104,1.995,1.538,2.845,1.504c2.165-0.085,3.809-0.91,3.823-3.511
	c0.021-3.83-2.547-6.139-3.52-7.02"/>
<path fill-rule="evenodd" clip-rule="evenodd" fill="none" stroke="#4D4446" stroke-width="0.75" d="M168.191,207.67
	c0,0,3.233,0.801,6.032,0.502s7.059-0.354,11.061,0c1.188,0.104,4.251-0.242,7.037,0c2.418,0.209,5.055,0.979,6.535,1.004
	c3.189,0.055,2.785-0.611,3.52-1.004"/>
<path fill-rule="evenodd" clip-rule="evenodd" fill="none" stroke="#4D4446" stroke-width="0.75" d="M191.372,213.188
	c-3.767,0.689-10.887,0.061-12.623-0.496"/>
<path fill-rule="evenodd" clip-rule="evenodd" fill="none" stroke="#4D4446" stroke-width="0.75" d="M169.196,268.43
	c0,0-18.109-12.564-26.644-23.098"/>
<path fill-rule="evenodd" clip-rule="evenodd" fill="none" stroke="#4D4446" stroke-width="0.75" d="M92.28,273.953
	c0,0,9.696,6.324,16.088,8.035c6.391,1.711,23.125,3.014,23.125,3.014"/>
<path fill-rule="evenodd" clip-rule="evenodd" fill="none" stroke="#4D4446" stroke-width="0.75" d="M88.762,283.494
	c0,0,32.521,10.229,38.709,12.053"/>
<path fill-rule="evenodd" clip-rule="evenodd" fill="none" stroke="#4D4446" stroke-width="0.75" d="M98.815,297.053
	c0,0,19.463,8.889,29.158,16.07"/>
<path fill-rule="evenodd" clip-rule="evenodd" fill="none" stroke="#4D4446" stroke-width="0.75" d="M60.106,289.521v2.51"/>
<path fill-rule="evenodd" clip-rule="evenodd" fill="none" stroke="#4D4446" stroke-width="0.75" d="M202.879,401
	c0,0,7.547-14.813,15.585-21.092c8.037-6.279,19.675-13.834,29.66-17.072c9.984-3.238,11.016-1.949,13.573-2.01
	c2.558-0.059,6.155,3.049,6.535,3.516s-2.667-0.217-8.546,1.004s-19.532,6.082-26.645,10.043
	c-7.112,3.963-19.384,16.299-23.125,25.611"/>
<path fill-rule="evenodd" clip-rule="evenodd" fill="none" stroke="#4D4446" stroke-width="0.75" d="M234.048,382.922
	c0,0,14.566,1.338,20.611,0s17.857-4.176,23.125-0.502"/>
<path fill-rule="evenodd" clip-rule="evenodd" fill="none" stroke="#4D4446" stroke-width="0.75" d="M253.653,385.936
	c0,0,9.75,1.189,25.137-1.006"/>
</svg>
