<?xml version="1.0" encoding="utf-8"?>
<!-- Generator: Adobe Illustrator 14.0.0, SVG Export Plug-In . SVG Version: 6.00 Build 43363)  -->
<!DOCTYPE svg PUBLIC "-//W3C//DTD SVG 1.1//EN" "http://www.w3.org/Graphics/SVG/1.1/DTD/svg11.dtd">
<svg version="1.1" xmlns="http://www.w3.org/2000/svg" xmlns:xlink="http://www.w3.org/1999/xlink" x="0px" y="0px"
	 width="40px" height="40px" viewBox="0 0 40 40" enable-background="new 0 0 40 40" xml:space="preserve">
<linearGradient id="svg-move" gradientUnits="userSpaceOnUse" x1="3.4824" y1="31.3931" x2="36.1494" y2="8.5596">
	<stop  offset="0" style="stop-color:#8C51A1"/>
	<stop  offset="0.4909" style="stop-color:#5A3795"/>
	<stop  offset="0.5212" style="stop-color:#645FAA"/>
	<stop  offset="1" style="stop-color:#ACA7D3"/>
</linearGradient>
<path fill-rule="evenodd" clip-rule="evenodd" fill="url(#svg-move)" d="M19.91-0.09c11.045,0,20,8.954,20,20
	c0,11.045-8.955,20-20,20c-11.046,0-20-8.955-20-20C-0.09,8.864,8.864-0.09,19.91-0.09z"/>
<path fill="#FFFFFF" d="M10.077,20.531l0.024,0.043c-0.198,1.146-0.318,1.901-0.363,2.267c-0.067,0.559-0.104,1.008-0.107,1.348
	c-0.004,0.34,0.021,0.634,0.078,0.881c0.056,0.247,0.148,0.492,0.275,0.736c0.29,0.53,0.636,0.795,1.039,0.795
	c0.255,0,0.503-0.089,0.744-0.269c0.24-0.179,0.396-0.397,0.466-0.655c0.007-0.222,0.005-0.53-0.006-0.924
	c-0.01-0.322-0.014-0.616-0.011-0.881c0.002-0.265,0.012-0.514,0.027-0.747c0.016-0.232,0.033-0.424,0.051-0.575
	c0.024-0.2,0.081-0.553,0.168-1.058c0.088-0.505,0.22-1.201,0.396-2.089c0.174-0.788,0.283-1.364,0.327-1.729
	c0.072-0.594,0.046-1.043-0.076-1.348c-0.123-0.304-0.337-0.457-0.642-0.457c-0.187,0-0.394,0.106-0.621,0.317
	c-0.227,0.211-0.552,0.604-0.975,1.176c-0.632,0.795-1.025,1.286-1.181,1.472c-0.068,0.079-0.141,0.163-0.218,0.252
	c-0.077,0.09-0.147,0.174-0.211,0.252c-0.063,0.079-0.136,0.168-0.216,0.269l-0.032-0.043c0.042-0.107,0.09-0.236,0.143-0.387
	c0.052-0.15,0.126-0.358,0.223-0.623c0.458-1.268,0.706-2.055,0.743-2.363c0.036-0.301,0.026-0.589-0.032-0.865
	c-0.058-0.275-0.153-0.496-0.285-0.661c-0.132-0.165-0.282-0.247-0.449-0.247c-0.378,0-0.833,0.308-1.365,0.924
	c-0.409,0.451-1.035,1.3-1.878,2.546c-0.49,0.716-0.843,1.221-1.061,1.515L5.029,19.36c0.175-0.516,0.342-0.978,0.5-1.386
	c0.414-1.103,0.653-1.923,0.718-2.46c0.036-0.293-0.023-0.532-0.175-0.714s-0.361-0.274-0.626-0.274c-0.438,0-0.871,0.373-1.3,1.117
	c-0.296,0.537-0.75,1.594-1.364,3.169c-0.687,1.776-1.078,3.062-1.174,3.856c-0.076,0.63-0.043,1.128,0.1,1.493
	S2.08,24.71,2.399,24.71c0.143,0,0.314-0.082,0.516-0.247c0.202-0.165,0.436-0.412,0.702-0.741c0.266-0.329,0.631-0.827,1.095-1.493
	c0.555-0.809,1.115-1.579,1.68-2.31l0.024,0.043c-0.028,0.072-0.065,0.16-0.109,0.263c-0.044,0.104-0.093,0.228-0.144,0.371
	c-0.265,0.688-0.449,1.205-0.553,1.552c-0.104,0.348-0.173,0.668-0.208,0.961c-0.057,0.473-0.003,0.872,0.161,1.198
	c0.164,0.326,0.396,0.489,0.696,0.489c0.191,0,0.375-0.07,0.552-0.209s0.418-0.399,0.725-0.779L9.912,20.8L10.077,20.531z"/>
<path fill="#FFFFFF" d="M18.195,14.467c-0.625,0.391-1.217,0.924-1.778,1.601s-1.032,1.431-1.412,2.261
	c-0.381,0.831-0.622,1.662-0.722,2.492c-0.127,1.053-0.029,1.866,0.294,2.438c0.244,0.423,0.602,0.763,1.074,1.021
	s0.964,0.387,1.476,0.387c0.526,0,1.102-0.184,1.729-0.553c0.627-0.369,1.182-0.843,1.665-1.423
	c0.375-0.458,0.706-1.058,0.992-1.799s0.476-1.491,0.567-2.25c0.055-0.458,0.067-0.89,0.035-1.294
	c-0.032-0.404-0.105-0.763-0.22-1.074c-0.115-0.312-0.262-0.551-0.44-0.72c-0.179-0.168-0.379-0.252-0.6-0.252
	c-0.191,0-0.437,0.075-0.735,0.226s-0.574,0.337-0.827,0.559c-0.227,0.208-0.346,0.362-0.358,0.462
	c-0.009,0.072,0.048,0.19,0.171,0.354c0.29,0.365,0.49,0.815,0.6,1.348c0.11,0.534,0.128,1.105,0.054,1.713
	c-0.09,0.745-0.309,1.396-0.657,1.955s-0.708,0.838-1.082,0.838c-0.403,0-0.701-0.238-0.894-0.714
	c-0.193-0.476-0.242-1.104-0.147-1.885c0.085-0.709,0.242-1.382,0.469-2.02c0.227-0.637,0.505-1.21,0.834-1.719
	c0.33-0.508,0.684-0.909,1.063-1.203c0.379-0.293,0.771-0.458,1.173-0.494c0.332-0.021,0.515-0.175,0.55-0.462
	c0.03-0.25-0.321-0.376-1.053-0.376C19.427,13.882,18.82,14.077,18.195,14.467z"/>
<path fill="#FFFFFF" d="M28.144,16.063c-0.362,0.838-0.608,1.411-0.739,1.719c-0.628,1.454-1.048,2.406-1.259,2.857
	c-0.079,0.165-0.184,0.401-0.314,0.709h-0.029l0.146-1.214l0.125-1.031l0.066-0.548c0.107-0.888,0.183-1.584,0.227-2.089
	c0.044-0.505,0.055-0.881,0.033-1.128c-0.021-0.247-0.075-0.446-0.16-0.596c-0.089-0.2-0.227-0.353-0.413-0.457
	c-0.187-0.104-0.393-0.156-0.619-0.156c-0.191,0-0.382,0.072-0.571,0.215c-0.215,0.193-0.416,0.6-0.601,1.219
	c-0.186,0.62-0.333,1.38-0.442,2.283c-0.079,0.652-0.131,1.327-0.157,2.025c-0.025,0.698-0.026,1.388-0.003,2.068
	c0.023,0.681,0.07,1.261,0.14,1.74c0.09,0.759,0.349,1.139,0.776,1.139c0.231,0,0.542-0.211,0.932-0.634
	c0.39-0.422,0.886-1.088,1.488-1.998c0.335-0.494,0.654-0.986,0.956-1.477c0.303-0.49,0.577-0.956,0.821-1.396
	c0.245-0.44,0.445-0.833,0.6-1.176c0.125-0.258,0.223-0.526,0.296-0.806s0.133-0.612,0.18-0.999
	c0.161-1.325,0.039-1.987-0.364-1.987c-0.138,0-0.254,0.061-0.35,0.183c-0.096,0.122-0.228,0.369-0.396,0.741l-0.158,0.333
	L28.144,16.063z"/>
<path fill="#FFFFFF" d="M32.959,20.703c0.053-0.437,0.176-0.958,0.37-1.563c0.194-0.605,0.423-1.212,0.688-1.821
	c0.446-1.01,0.749-1.515,0.906-1.515c0.113,0,0.146,0.197,0.098,0.591c-0.051,0.423-0.138,0.877-0.261,1.364
	c-0.123,0.487-0.265,0.928-0.425,1.321c-0.215,0.602-0.481,1.135-0.798,1.601c-0.145,0.222-0.344,0.444-0.597,0.666
	C32.935,21.068,32.941,20.854,32.959,20.703L32.959,20.703z M33.23,21.81c0.241,0,0.539-0.136,0.894-0.408
	c0.354-0.272,0.729-0.651,1.122-1.139c0.478-0.58,0.86-1.185,1.145-1.815c0.285-0.63,0.462-1.235,0.533-1.815
	c0.09-0.745,0.029-1.33-0.182-1.756c-0.211-0.426-0.548-0.639-1.01-0.639c-0.639,0-1.348,0.337-2.127,1.01
	c-0.633,0.559-1.194,1.257-1.684,2.095c-0.416,0.716-0.77,1.484-1.063,2.304c-0.293,0.82-0.479,1.556-0.558,2.208
	c-0.104,0.853-0.001,1.535,0.305,2.046c0.307,0.512,0.767,0.768,1.381,0.768c0.246,0,0.534-0.07,0.865-0.209
	c0.332-0.14,0.669-0.329,1.013-0.569c0.343-0.24,0.707-0.541,1.089-0.902c0.383-0.361,0.728-0.732,1.034-1.112
	c0.167-0.208,0.259-0.376,0.275-0.505c0.015-0.122-0.035-0.24-0.149-0.354c-0.114-0.114-0.245-0.172-0.392-0.172
	c-0.118,0-0.371,0.183-0.759,0.548c-0.666,0.63-1.183,0.945-1.552,0.945c-0.33,0-0.495-0.215-0.497-0.645
	C33.017,21.771,33.123,21.81,33.23,21.81L33.23,21.81z"/>
</svg>
