<?xml version="1.0" encoding="utf-8"?>
<!-- Generator: Adobe Illustrator 14.0.0, SVG Export Plug-In . SVG Version: 6.00 Build 43363)  -->
<!DOCTYPE svg PUBLIC "-//W3C//DTD SVG 1.1//EN" "http://www.w3.org/Graphics/SVG/1.1/DTD/svg11.dtd">
<svg version="1.1" xmlns="http://www.w3.org/2000/svg" xmlns:xlink="http://www.w3.org/1999/xlink" x="0px" y="0px"
	 width="40px" height="40px" viewBox="0 0 40 40" enable-background="new 0 0 40 40" xml:space="preserve">
<path fill-rule="evenodd" clip-rule="evenodd" fill="#99CC66" d="M19.889-0.074c11.025,0,19.963,8.938,19.963,19.963
	s-8.938,19.963-19.963,19.963S-0.074,30.914-0.074,19.889S8.863-0.074,19.889-0.074z"/>
<path fill-rule="evenodd" clip-rule="evenodd" fill="#FFFFFF" d="M19.889,1.15c10.349,0,18.739,8.39,18.739,18.739
	s-8.39,18.739-18.739,18.739S1.15,30.238,1.15,19.889S9.54,1.15,19.889,1.15z"/>
<path fill-rule="evenodd" clip-rule="evenodd" fill="#99CC66" d="M5.789,17.44l-4.972,5.492c0,0,0.154,2.523,2.38,6.604l6.597-8.086
	L5.789,17.44z"/>
<path fill-rule="evenodd" clip-rule="evenodd" fill="#99CC66" d="M3.562,30.13l9.054-10.983l9.499,10.463l14.62-0.297
	c0,0-3.014,5.747-9.276,8.238c-6.531,2.598-13.186,2.078-19.295-2.152C5.269,33.395,3.562,30.13,3.562,30.13z"/>
<path fill-rule="evenodd" clip-rule="evenodd" fill="#99CC66" d="M19.814,28.868l1.781-4.23h7.569l2.301,5.046l-1.559,0.668
	c0,0-1.261-4.007-4.601-4.082c-3.34-0.074-4.527,4.007-4.527,4.007L19.814,28.868z"/>
<path fill-rule="evenodd" clip-rule="evenodd" fill="#99CC66" d="M21.15,22.932h8.312v1.187H21.15V22.932z"/>
<path fill-rule="evenodd" clip-rule="evenodd" fill="#99CC66" d="M23.525,17.366h3.563v0.964h-3.563V17.366z"/>
<path fill-rule="evenodd" clip-rule="evenodd" fill="#99CC66" d="M25.232,3.488l-0.816,14.174l1.781-0.031L25.232,3.488z"/>
<path fill-rule="evenodd" clip-rule="evenodd" fill="#99CC66" d="M24.175,7.016l1.03-1.373l1.144,1.334L24.175,7.016z"/>
<path fill-rule="evenodd" clip-rule="evenodd" fill="#99CC66" d="M21.971,23.354l1.635-4.403h3.312l1.803,4.361h-0.964l-1.426-3.648
	h-2.18l-1.216,3.69H21.971z"/>
<path fill-rule="evenodd" clip-rule="evenodd" fill="#99CC66" d="M31.196,25.442h4.818v4.264h-4.818V25.442z"/>
<path fill-rule="evenodd" clip-rule="evenodd" fill="#99CC66" d="M30.537,24.922h6.066v0.693h-6.066V24.922z"/>
<path fill-rule="evenodd" clip-rule="evenodd" fill="#99CC66" d="M31.237,25.115l1.013-1.864v-4.677l-0.356-0.49l0.541-0.52
	l-0.001-1.099l-0.853-0.79l0.416-0.728v-2.89l-0.499-0.832l0.645-0.645l0.374,0.603v3.285l0.645,0.271l0.499-0.977l0.416,0.125V15.8
	l0.811,0.811v0.37h1.165v0.956l-0.981,0.981v4.277l1.208,1.887L31.237,25.115z"/>
</svg>
