<?xml version="1.0" encoding="utf-8"?>
<!-- Generator: Adobe Illustrator 14.0.0, SVG Export Plug-In . SVG Version: 6.00 Build 43363)  -->
<!DOCTYPE svg PUBLIC "-//W3C//DTD SVG 1.1//EN" "http://www.w3.org/Graphics/SVG/1.1/DTD/svg11.dtd">
<svg version="1.1" id="图层_1" xmlns="http://www.w3.org/2000/svg" xmlns:xlink="http://www.w3.org/1999/xlink" x="0px" y="0px"
	 width="40px" height="40px" viewBox="0 0 40 40" enable-background="new 0 0 40 40" xml:space="preserve">
<linearGradient id="SVGID_1_" gradientUnits="userSpaceOnUse" x1="20.748" y1="38.9038" x2="20.748" y2="0.3511">
	<stop  offset="0" style="stop-color:#D4D18F"/>
	<stop  offset="1" style="stop-color:#63A143"/>
</linearGradient>
<path fill="url(#SVGID_1_)" d="M36.909,29.642c-2.854,1.66-12.816,7.455-15.54,9.039c-0.027,0.04-0.645,0.442-1.287,0.061
	c-2.603-1.495-12.975-7.448-15.657-8.938c-0.597-0.309-0.61-0.985-0.619-1.025c0.014-2.935,0.065-14.527,0.012-18.041
	c-0.02-1.213,0.927-1.52,0.926-1.564C7.577,7.564,16.046,2.75,19.552,0.708c1.532-0.89,2.817,0.166,2.813,0.155
	c-0.002-0.001,11.21,6.54,14.563,8.47c0.882,0.511,0.768,1.67,0.75,1.75c0.012,4.276,0.004,13.747,0.001,16.994
	C37.677,28.114,37.726,29.123,36.909,29.642z"/>
<path fill="#FFFFFF" d="M6.496,10.678l12.677,7.54c0.326,0.194,0.434,0.616,0.239,0.942c-0.193,0.326-0.615,0.434-0.942,0.24
	l-12.677-7.54c-0.326-0.194-0.434-0.616-0.239-0.942C5.747,10.591,6.169,10.483,6.496,10.678z"/>
<path fill-rule="evenodd" clip-rule="evenodd" fill="#FCFAFB" d="M35.394,10.681l-12.632,7.504
	c-0.325,0.193-0.432,0.613-0.238,0.938s0.613,0.432,0.938,0.239l12.632-7.504c0.325-0.193,0.432-0.613,0.238-0.938
	C36.139,10.594,35.719,10.488,35.394,10.681z"/>
<path fill="#FFFFFF" d="M21.525,36.745l0.051-14.693c0.001-0.378-0.305-0.686-0.683-0.687c-0.378-0.001-0.686,0.305-0.687,0.683
	l-0.051,14.694c-0.001,0.378,0.305,0.686,0.683,0.687S21.524,37.124,21.525,36.745z"/>
</svg>
