<?xml version="1.0" encoding="utf-8"?>
<!-- Generator: Adobe Illustrator 14.0.0, SVG Export Plug-In . SVG Version: 6.00 Build 43363)  -->
<!DOCTYPE svg PUBLIC "-//W3C//DTD SVG 1.1//EN" "http://www.w3.org/Graphics/SVG/1.1/DTD/svg11.dtd">
<svg version="1.1" id="图层_1" xmlns="http://www.w3.org/2000/svg" xmlns:xlink="http://www.w3.org/1999/xlink" x="0px" y="0px"
	 width="40px" height="40px" viewBox="0 0 40 40" enable-background="new 0 0 40 40" xml:space="preserve">
<g id="XMLID_1_">
	<linearGradient id="svg_maya" gradientUnits="userSpaceOnUse" x1="20.0005" y1="39.501" x2="20.0005" y2="0.4995">
		<stop  offset="0" style="stop-color:#323232"/>
		<stop  offset="0.2788" style="stop-color:#4B4B4B"/>
		<stop  offset="0.7758" style="stop-color:#B3B3B3"/>
		<stop  offset="0.9636" style="stop-color:#C8C8C8"/>
	</linearGradient>
	<circle fill="url(#svg_maya)" cx="20" cy="20" r="19.5"/>
</g>
<g>
	<path fill="#FFFFFF" d="M9.806,18.998l0.129-0.29c1.014-2.286,1.748-3.771,2.204-4.458c0.073-0.095,0.135-0.168,0.187-0.222
		c0.052-0.054,0.111-0.102,0.177-0.145c0.066-0.043,0.154-0.086,0.261-0.129c0.309-0.133,0.708-0.199,1.198-0.199
		c0.253,0,0.413,0.021,0.48,0.064c0.066,0.043,0.1,0.14,0.1,0.29c0,0.116-0.004,0.241-0.013,0.374
		c-0.035,0.773-0.052,1.323-0.052,1.649c0,0.825,0.056,1.606,0.167,2.345c0.073,0.413,0.181,0.832,0.322,1.257
		c0.15,0.378,0.294,0.668,0.432,0.87c0.163,0.224,0.301,0.387,0.413,0.49c0.137,0.138,0.206,0.243,0.206,0.315
		c0,0.134-0.114,0.313-0.341,0.542c-0.383,0.369-0.765,0.554-1.147,0.554c-0.537,0-1.025-0.229-1.463-0.689
		c-0.223-0.224-0.4-0.472-0.532-0.744c-0.131-0.273-0.229-0.61-0.293-1.012c-0.064-0.401-0.107-0.912-0.129-1.53
		c-0.03-0.67-0.047-1.048-0.051-1.134h-0.026c-0.271,0.52-0.497,0.954-0.677,1.302c-0.181,0.348-0.328,0.636-0.441,0.863
		c-0.114,0.228-0.249,0.5-0.403,0.818c-0.49,1.014-0.81,1.626-0.96,1.836c-0.009,0.009-0.026,0.028-0.052,0.058
		c-0.026,0.03-0.049,0.055-0.071,0.071c-0.073,0.068-0.156,0.121-0.249,0.158c-0.092,0.036-0.171,0.055-0.235,0.055
		c-0.181,0-0.379-0.113-0.596-0.339c-0.217-0.226-0.407-0.516-0.571-0.873c-0.167-0.377-0.304-0.763-0.41-1.157
		c-0.105-0.393-0.199-0.859-0.278-1.399c-0.08-0.54-0.15-1.198-0.21-1.976H6.854c-0.129,0.284-0.226,0.496-0.291,0.638
		S6.4,17.612,6.267,17.909c-0.134,0.296-0.211,0.468-0.232,0.515c-0.177,0.391-0.362,0.786-0.556,1.186s-0.35,0.707-0.467,0.922
		c-0.118,0.215-0.248,0.428-0.39,0.639c-0.064,0.099-0.178,0.239-0.341,0.42c-0.253,0.24-0.53,0.429-0.831,0.564
		s-0.585,0.203-0.856,0.203c-0.103,0-0.193-0.026-0.27-0.077c-0.077-0.052-0.116-0.118-0.116-0.2c0-0.073,0.058-0.17,0.174-0.29
		c0.064-0.077,0.204-0.274,0.419-0.593l0.374-0.58c0.232-0.344,0.583-0.96,1.051-1.85l0.31-0.58c0.722-1.383,1.21-2.33,1.463-2.838
		c0.254-0.509,0.381-0.804,0.381-0.886c0-0.09-0.065-0.191-0.195-0.303c-0.1-0.082-0.149-0.152-0.149-0.212
		c0-0.095,0.125-0.184,0.374-0.268s0.521-0.125,0.813-0.125c0.589,0,1.008,0.131,1.258,0.393c0.155,0.163,0.299,0.484,0.432,0.963
		c0.133,0.479,0.267,1.173,0.401,2.081c0.008,0.051,0.015,0.091,0.019,0.119c0.004,0.028,0.009,0.053,0.013,0.074
		s0.006,0.049,0.006,0.083c0.026,0.12,0.039,0.199,0.039,0.238c0.091,0.553,0.16,0.909,0.208,1.07
		C9.646,18.737,9.715,18.878,9.806,18.998z"/>
	<path fill="#FFFFFF" d="M20.934,20.495v0.026l-0.026-0.026c-0.399,0.468-0.766,0.852-1.098,1.15
		c-0.333,0.298-0.64,0.522-0.921,0.673c-0.282,0.15-0.541,0.226-0.776,0.226c-0.481,0-0.879-0.161-1.192-0.483
		s-0.47-0.729-0.47-1.224c0-0.305,0.077-0.666,0.232-1.083c0.155-0.417,0.367-0.825,0.638-1.224
		c0.451-0.653,1.018-1.207,1.701-1.663c0.705-0.468,1.383-0.702,2.036-0.702c0.55,0,1.002,0.113,1.356,0.338s0.531,0.51,0.531,0.854
		c0,0.254-0.088,0.522-0.264,0.806c0.231,0,0.378,0.025,0.438,0.074c0.06,0.049,0.09,0.164,0.09,0.345
		c0-0.017-0.011,0.071-0.032,0.264c-0.025,0.425-0.039,0.822-0.039,1.192c0,0.193,0.002,0.339,0.007,0.438
		c0.004,0.099,0.013,0.213,0.025,0.342c0.014,0.129,0.026,0.232,0.039,0.31c0.034,0.201,0.09,0.401,0.167,0.599
		c-0.257,0.254-0.504,0.439-0.74,0.558s-0.478,0.177-0.722,0.177c-0.662,0-0.992-0.554-0.992-1.662
		C20.921,20.669,20.925,20.568,20.934,20.495z M21.32,19.02l-0.123,0.039c-0.309,0.086-0.532,0.129-0.67,0.129
		c-0.167,0-0.251-0.043-0.251-0.129c0-0.03,0.034-0.109,0.103-0.238c0.241-0.365,0.361-0.709,0.361-1.031
		c0-0.185-0.032-0.354-0.097-0.506c-0.064-0.153-0.136-0.229-0.213-0.229c-0.068,0-0.174,0.073-0.315,0.219
		c-0.4,0.434-0.716,0.878-0.951,1.333c-0.234,0.456-0.351,0.861-0.351,1.218c0,0.236,0.048,0.432,0.145,0.586
		c0.097,0.155,0.218,0.232,0.364,0.232c0.125,0,0.357-0.133,0.699-0.399c0.342-0.266,0.725-0.619,1.15-1.057l0.174-0.142
		L21.32,19.02z"/>
	<path fill="#FFFFFF" d="M27.929,17.95l0.084-0.277c0.112-0.43,0.282-0.76,0.51-0.992c0.146-0.146,0.313-0.267,0.503-0.361
		c0.189-0.095,0.361-0.142,0.517-0.142c0.283,0,0.425,0.121,0.425,0.361c0,0.121-0.038,0.308-0.115,0.561
		c-0.078,0.253-0.18,0.54-0.307,0.86c-0.127,0.32-0.275,0.671-0.445,1.054s-0.358,0.775-0.564,1.179
		c-0.374,0.765-0.752,1.411-1.135,1.939c-0.275,0.378-0.555,0.713-0.839,1.005s-0.582,0.555-0.894,0.786
		c-0.312,0.232-0.606,0.407-0.884,0.525s-0.532,0.177-0.764,0.177c-0.193,0-0.29-0.083-0.29-0.251c0-0.133,0.029-0.292,0.09-0.477
		s0.145-0.359,0.252-0.522c0.116-0.154,0.263-0.292,0.438-0.412c0.224-0.154,0.554-0.331,0.988-0.528
		c-0.259-0.434-0.454-0.777-0.588-1.031c-0.134-0.253-0.279-0.569-0.439-0.947c-0.353-0.838-0.529-1.598-0.529-2.281
		c0-0.52,0.064-0.943,0.193-1.269c0.116-0.279,0.329-0.477,0.638-0.593c0.249-0.099,0.473-0.148,0.671-0.148
		c0.278,0,0.467,0.106,0.563,0.319c0.097,0.213,0.182,0.71,0.255,1.492c0.077,0.838,0.203,1.665,0.376,2.481
		c0.03,0.125,0.064,0.296,0.104,0.515h0.026c0.115-0.253,0.242-0.561,0.38-0.921c0.043-0.103,0.193-0.483,0.452-1.14
		C27.746,18.515,27.856,18.195,27.929,17.95z"/>
	<path fill="#FFFFFF" d="M34.813,20.495v0.026l-0.026-0.026c-0.399,0.468-0.766,0.852-1.099,1.15
		c-0.333,0.298-0.64,0.522-0.921,0.673s-0.54,0.226-0.776,0.226c-0.481,0-0.879-0.161-1.192-0.483s-0.47-0.729-0.47-1.224
		c0-0.305,0.077-0.666,0.231-1.083c0.154-0.417,0.367-0.825,0.638-1.224c0.451-0.653,1.019-1.207,1.701-1.663
		c0.705-0.468,1.383-0.702,2.036-0.702c0.55,0,1.002,0.113,1.356,0.338s0.531,0.51,0.531,0.854c0,0.254-0.088,0.522-0.264,0.806
		c0.231,0,0.378,0.025,0.438,0.074c0.06,0.049,0.09,0.164,0.09,0.345c0-0.017-0.011,0.071-0.032,0.264
		c-0.025,0.425-0.039,0.822-0.039,1.192c0,0.193,0.002,0.339,0.007,0.438c0.004,0.099,0.013,0.213,0.025,0.342
		c0.014,0.129,0.026,0.232,0.039,0.31c0.034,0.201,0.09,0.401,0.167,0.599c-0.257,0.254-0.504,0.439-0.74,0.558
		s-0.478,0.177-0.722,0.177c-0.662,0-0.992-0.554-0.992-1.662C34.8,20.669,34.804,20.568,34.813,20.495z M35.199,19.02l-0.123,0.039
		c-0.309,0.086-0.532,0.129-0.67,0.129c-0.167,0-0.251-0.043-0.251-0.129c0-0.03,0.034-0.109,0.103-0.238
		c0.241-0.365,0.361-0.709,0.361-1.031c0-0.185-0.032-0.354-0.097-0.506c-0.064-0.153-0.136-0.229-0.213-0.229
		c-0.068,0-0.174,0.073-0.315,0.219c-0.399,0.434-0.717,0.878-0.95,1.333c-0.234,0.456-0.352,0.861-0.352,1.218
		c0,0.236,0.049,0.432,0.145,0.586c0.097,0.155,0.219,0.232,0.364,0.232c0.125,0,0.357-0.133,0.699-0.399
		c0.342-0.266,0.725-0.619,1.15-1.057l0.174-0.142L35.199,19.02z"/>
</g>
</svg>
