<?xml version="1.0" encoding="utf-8"?>
<!-- Generator: Adobe Illustrator 14.0.0, SVG Export Plug-In . SVG Version: 6.00 Build 43363)  -->
<!DOCTYPE svg PUBLIC "-//W3C//DTD SVG 1.1//EN" "http://www.w3.org/Graphics/SVG/1.1/DTD/svg11.dtd">
<svg version="1.1" id="图层_1" xmlns="http://www.w3.org/2000/svg" xmlns:xlink="http://www.w3.org/1999/xlink" x="0px" y="0px"
	 width="40px" height="40px" viewBox="0 0 40 40" enable-background="new 0 0 40 40" xml:space="preserve">
<path fill-rule="evenodd" clip-rule="evenodd" fill="#29AAE2" d="M19.95,0.1c4.671,0,8.965,1.613,12.355,4.313
	c4.568,3.637,7.495,9.245,7.495,15.538c0,10.963-8.887,19.851-19.851,19.851S0.1,30.914,0.1,19.95S8.987,0.1,19.95,0.1z"/>
<path fill-rule="evenodd" clip-rule="evenodd" fill="#009DCD" d="M19.95,0.1c1.732,0,3.413,0.222,5.014,0.639
	C18.784,4.777,3.16,15.274,0.247,17.518c0.289-2.361,0.992-4.595,2.034-6.625C8.957,6.574,13.842,3.383,19.95,0.1z"/>
<path fill-rule="evenodd" clip-rule="evenodd" fill="#009DCD" d="M29.169,2.365c1.035,0.544,2.016,1.176,2.933,1.887
	c-9.189,8.165-17.791,15.409-29.643,25.092c-0.803-1.493-1.421-3.1-1.823-4.791C10.807,16.415,22.921,6.991,29.169,2.365z"/>
<path fill-rule="evenodd" clip-rule="evenodd" fill="#009DCD" d="M34.824,6.804c0.693,0.784,1.326,1.623,1.89,2.51
	c-6.555,6.273-22.75,22.997-27.321,27.45c-1.484-0.934-2.836-2.059-4.021-3.34C10.86,29.012,27.026,14.043,34.824,6.804z"/>
<path fill-rule="evenodd" clip-rule="evenodd" fill="#009DCD" d="M38.26,12.268c0.413,0.982,0.749,2.005,1,3.06
	c-3.272,3.844-16.806,19.933-20.741,24.422c-1.652-0.118-3.248-0.438-4.763-0.935C20.116,32.47,35.247,15.845,38.26,12.268z"/>
<path fill-rule="evenodd" clip-rule="evenodd" fill="#009DCD" d="M39.801,19.95c0.036,0.915-0.185,3.12-0.534,4.595
	c-2.593,3.995-5.396,7.819-8.451,12.021c-2.016,1.321-4.288,2.285-6.724,2.802C27.644,35.167,35.999,24.811,39.801,19.95z"/>
<path fill="#FFFFFF" d="M12.736,24.548c-1.029,0.709-2.499,2.04-4.22,2.04c-0.921,0-2.437-0.452-2.81-1.27
	c-1.011-2.21-0.698-5.69,0.638-8.195c-0.173,0.324,1.971-4.062,4.816-4.517c1.172-0.281,2.119,0.071,2.135,0.075
	c0.245,0.108,0.575,0.685-0.807,3.11s-2.097,4.409-1.544,4.378s3.879-4.446,4.249-5.427c-0.505,1.353,1.684-3.653-1.17-4.256
	c-1.638-0.345-4.848,0.812-6.362,2.481c0.642-0.708-1.937,1.915-3.521,5.175c-1.936,3.985-1.182,6.687-0.606,8.251
	c0.799,2.171,3.468,1.983,4.171,1.921c1.561-0.137,3.157-0.845,4.978-2.517c1.027-0.942,4.386-4.541,4.277-4.886
	C16.962,20.912,13.765,23.839,12.736,24.548z"/>
<path fill="#FFFFFF" d="M14.297,27.551c0.375,0.974,1.646,0.469,2.081,0.24c3.508-1.846,1.172-1.489,3.721-3.217
	c0.361-0.245,0.226,0.431,0.241,0.345c-0.061,0.628,0.028,1.097,0.267,1.407c0.618,0.803,1.879,0.33,1.903,0.32
	c1.239-0.474,2.073-1.389,2.286-1.775c0.328-0.594,0.571-1.839,0.461-1.902c-0.1-0.058-0.926,1.244-1.247,1.614
	c-0.298,0.344-1.113,0.518-1.423-0.047c-0.216-0.392,0.006-1.039,0.224-1.506c0.406-0.875-0.286-1.048-0.638-1.048
	c-0.687,0-0.984,0.19-2.332,1.279c-0.406,0.328-2.134,3.457-2.89,1.699c-0.756-1.758,1.026-2.966,1.624-3.473
	c2.322-1.76,3.627-2.182,3.909-1.455c0.09,0.233,0.109,1.355,0.283,1.453c0.353,0.199,0.911-1.476,0.981-1.892
	c0.1-0.597-0.073-1.276-0.513-1.396c-0.688-0.188-2.892,0.737-4.825,2.113C15.325,22.504,13.6,25.741,14.297,27.551z"/>
<path fill="#FFFFFF" d="M25.96,25.132c0.438-0.703,0.874-0.92,1.077-0.904s0.148,0.25,0.155,0.402
	c-0.015,1.508,0.834,2.219,1.389,2.37c0.922,0.251,2.489,0.152,4.608-2.193c0.434-0.48,1.562-2.83,1.493-3.108
	c-0.074-0.299-1.279,1.583-1.909,2.278c-1.093,1.206-2.559,1.303-3.15,1.224c-0.678-0.091-1.017-1.84-0.689-2.605
	c0.381-0.89,0.983-1.304,1.683-2.061c0.699-0.756,2.359-1.963,4.054-5.646c0.358-0.778,1.625-3.841,0.976-4.674
	c-1.572-2.018-4.712,3.326-5.791,5.152c-1.079,1.826-1.599,3.313-2.18,5.672c-0.179,0.726-0.201,1.273-0.404,1.507
	s-1.344,0.573-1.609,1.432S25.523,25.836,25.96,25.132z M31.98,17.494c-0.25,0.453-1.085,2.097-2.3,2.576
	c-1.215,0.479,1.256-3.746,1.176-3.624c0.007-0.011,1.837-2.878,2.458-2.381C33.75,14.431,32.23,17.041,31.98,17.494z"/>
</svg>
