<?xml version="1.0" encoding="utf-8"?>
<!-- Generator: Adobe Illustrator 14.0.0, SVG Export Plug-In . SVG Version: 6.00 Build 43363)  -->
<!DOCTYPE svg PUBLIC "-//W3C//DTD SVG 1.1//EN" "http://www.w3.org/Graphics/SVG/1.1/DTD/svg11.dtd">
<svg version="1.1" id="图层_1" xmlns="http://www.w3.org/2000/svg" xmlns:xlink="http://www.w3.org/1999/xlink" x="0px" y="0px"
	 width="40px" height="40px" viewBox="0 0 40 40" enable-background="new 0 0 40 40" xml:space="preserve">
<path fill-rule="evenodd" clip-rule="evenodd" fill="#B3B4B4" d="M19.819,0c10.946,0,19.819,8.874,19.819,19.819
	s-8.874,19.819-19.819,19.819S0,30.765,0,19.819S8.874,0,19.819,0z"/>
<path fill-rule="evenodd" clip-rule="evenodd" fill="#999999" d="M19.819,0c10.946,0,19.819,8.874,19.819,19.819
	c0,9.303-6.409,17.108-15.053,19.242c-1.712-1.667-3.286-4.6-3.1-8.625c0.186-4.025,3.634-7.528,4.845-10.859
	C27.47,16.442,33.693,2.771,19.819,0z"/>
<path fill="#E6E6E6" d="M11.942,7.418l-0.25-0.293l-0.629-0.674l-0.322-0.146l-0.454-0.146L9.745,6.042L9.32,6.159L8.938,6.188
	L8.484,6.305l-0.396,0.22L7.796,6.73L7.518,7.082L7.459,7.506L7.371,7.843L7.196,8.224L6.991,8.62L6.8,9.074L6.537,9.879
	l-0.029,0.542l-0.146,0.835L6.39,11.71v0.425l0.146,0.806l-0.029,0.352l0.029,0.366l0.146,0.542l0.088,0.571l0.059,0.513v0.234
	l-0.117,0.176l-0.352,0.22l-0.366-0.073H5.658l-0.777,0.132l-0.322,0.234L4.31,16.544L4.28,16.867l0.029,0.205l0.162,0.278
	l0.498,0.513l0.366,0.117l0.483,0.029l0.293-0.088l0.396-0.059l0.425-0.117l0.264,0.146l0.029,5.156L7.196,23.59l-0.059,0.483v0.469
	l-0.205,0.791l-0.161,0.542l-0.088,0.586l-0.146,0.454l0.029,0.513l-0.029,0.425l-0.029,0.659L6.39,29.494v0.542l0.176,0.278
	l0.264-0.103l0.22-0.293l-0.088-0.425l0.029-0.542v-0.498L7.049,28v-0.454l0.088-0.571l0.205-0.63l0.117-0.571l0.279-0.601
	l0.087-0.747l0.059-0.571l0.029-0.571v-0.439L8.03,22.36l0.029-0.513v-1.172l0.029-0.454L8.06,19.782l0.029-0.776v-1.113l0.103-0.19
	l0.586-0.381l0.396-0.029l0.776-0.249h0.454l1.259-0.381l0.176-0.117l-0.293-0.19l-0.205-0.146l-0.542-0.234h-0.513l-0.454-0.059
	L9.48,15.973l-0.219-0.132l-0.63-0.029l-0.322-0.146L8.06,15.431L8.03,15.182l-0.059-0.41v-1.113l-0.059-0.542l0.146-0.513
	l0.029-0.688l0.103-0.601l0.146-0.571l0.146-0.542l0.235-0.439l0.059-0.396l0.278-0.352L9.48,8.678l0.381-0.205l0.366-0.132
	l0.454-0.029h0.585l0.571-0.322l0.132-0.278L11.942,7.418z"/>
<path fill="#E6E6E6" d="M17.997,24.674l-0.307-0.19l-0.323-0.059l-0.131-0.205l-0.352-0.146h-0.806l-0.63,0.293l-0.688,0.396
	l-0.366,0.322l0.029,0.308l0.087,0.234v0.205l0.088,0.19l0.366,0.293l0.088,0.19l0.146,0.41l0.249,0.22l0.41,0.059l0.337-0.029
	l0.571-0.425l0.205-0.308l0.117-0.117l0.22-0.293l0.146-0.278l0.542-0.469l0.059-0.308L17.997,24.674z M17.236,27.165l-0.176-0.073
	l-0.146,0.103l0.176,0.234l0.147-0.117V27.165z"/>
<path fill="#E6E6E6" d="M25.811,12.252l-0.117-0.249l0.059-0.176l-0.088-0.264l-0.059-0.425l0.088-0.337l0.059-0.469v-0.308
	l-0.206-0.234h-0.308l-0.264,0.234l-0.278,0.308l-0.293,0.835l-0.308,0.396l-0.469,0.234l-0.571,0.117l-0.425,0.22l-0.308,0.381
	l-0.029,0.396l0.059,0.322l0.249,0.366l0.293,0.146l0.396,0.059h0.425l0.498-0.146l0.908-0.293l0.425-0.161l0.352-0.264l0.029-0.425
	L25.811,12.252z M20.962,21.613l-0.176,0.176l0.117,0.205l0.176-0.059l0.132-0.176L20.962,21.613z M26.704,17.174l-0.206-0.425
	l-0.265-0.205l-0.338-0.278l-0.382-0.146l-0.427-0.146l-0.396-0.059h-0.441l-0.368,0.146l-0.265,0.029l-0.309,0.117l-0.147,0.308
	l-0.147,0.352l-0.162,0.425l0.029,0.454l0.132,0.439l0.176,0.483l0.088,0.483l0.176,0.352v0.366l0.059,0.396l0.161,0.293
	l-0.161,0.337l0.103,0.41l-0.073,0.366v0.483l0.073,0.322l0.117,0.425l-0.029,0.41l0.029,0.425l0.059,0.337l0.088,0.41l0.058,0.425
	l0.146,0.454l-0.088,0.293v0.396l0.117,0.41v0.425l0.132,0.425l0.059,0.513l-0.059,0.322l-0.132,0.396l-0.029,0.41l-0.117,0.425
	l-0.176,0.425l-0.249,0.513l-0.146,0.41l-0.352,0.425l-0.22,0.205l-0.234,0.366l-0.396,0.322l-0.322,0.337l-0.425,0.205l-0.483,0.22
	l-0.41,0.059l-0.308-0.059h-0.381l-0.732-0.22l-0.146-0.176l-0.234-0.146l-0.22-0.308l-0.264-0.234l-0.234-0.029l-0.161,0.146
	l0.132,0.278l0.029,0.205l0.176,0.322h0.323l0.602,0.366l0.308,0.059l0.382,0.176h0.455l0.514,0.029l0.264-0.117l0.337,0.059
	l0.484-0.117l0.411-0.234l0.455-0.22l0.426-0.176l0.381-0.293l0.337-0.132l0.235-0.322l0.396-0.425l0.264-0.293l0.22-0.483
	l0.234-0.454l0.177-0.513l0.103-0.41v-0.425l0.029-0.352l0.146-0.396l0.088-0.513v-0.454l-0.117-0.498v-0.542l0.029-0.571
	l0.059-0.542l0.029-0.308l-0.088-0.264v-0.542l0.059-0.601v-0.293l0.058-0.425v-0.659l0.117-0.513v-0.571l0.088-0.454l0.088-0.498
	l0.073-0.454l0.059-0.513l0.205-0.454l0.205-0.527l0.161-0.308L26.704,17.174z"/>
<path fill="#E6E6E6" d="M30.094,16.266l-0.278-0.059l-0.176,0.234l0.234,0.19l0.22-0.117V16.266z M36.686,22.96l-0.088-0.483
	l-0.029-0.425l-0.235-0.293l-0.309-0.264l-0.265-0.161l-0.28-0.117l-0.206-0.264l-0.235-0.132l-0.279-0.059l-0.265-0.293
	l-0.309-0.249l-0.265-0.234l-0.279-0.205l-0.382-0.088l-0.279-0.249l-0.177-0.322l0.118-0.425l0.28-0.293l0.293-0.22l0.427-0.205
	l0.456-0.088l0.412,0.029l0.485,0.059l0.603-0.059l0.368-0.146l0.206-0.22l0.206-0.322v-0.425l-0.088-0.205l-0.234-0.337
	l-0.22-0.146l-0.352-0.278l-0.308-0.176l-0.41-0.117H34.62l-0.513,0.117l-0.571,0.176l-0.439,0.073l-0.396,0.029l-0.337,0.176
	l-0.322,0.088l-0.088,0.308h-0.278l-0.205,0.264l-0.059,0.176l-0.249,0.337l-0.234,0.352l-0.176,0.425l-0.029,0.366l-0.117,0.41
	l0.029,0.454l0.146,0.396l0.205,0.293l0.205,0.366l0.337,0.205l0.366,0.205l0.264,0.029l0.396,0.103l0.264,0.146l0.425,0.176
	l0.381,0.234l0.542,0.278l0.19,0.176l0.498,0.249l0.425,0.146l0.308,0.381l0.146,0.366v0.483l-0.029,0.41l-0.22,0.22l-0.293,0.234
	l-0.396,0.278l-0.293,0.176l-0.396,0.117l-0.483,0.117l-0.381-0.176l-0.601-0.059l-0.366-0.146l-0.41-0.161l-0.396-0.146
	l-0.205-0.322v-0.425l0.029-0.366l0.117-0.322l-0.117-0.249l-0.249,0.044l-0.205,0.293l-0.117,0.264l-0.161,0.425v0.425l0.161,0.322
	l0.176,0.337l0.293,0.117l0.278,0.234l0.483,0.19l0.571,0.146l0.41,0.029l0.308,0.234h0.923l0.454-0.029l0.322-0.146l0.366-0.205
	l0.337-0.117l0.381-0.337l0.308-0.293l0.205-0.396l0.146-0.454l0.059-0.41L36.686,22.96z"/>
</svg>
