<?xml version="1.0" encoding="utf-8"?>
<!-- Generator: Adobe Illustrator 14.0.0, SVG Export Plug-In . SVG Version: 6.00 Build 43363)  -->
<!DOCTYPE svg PUBLIC "-//W3C//DTD SVG 1.1//EN" "http://www.w3.org/Graphics/SVG/1.1/DTD/svg11.dtd">
<svg version="1.1" id="图层_1" xmlns="http://www.w3.org/2000/svg" xmlns:xlink="http://www.w3.org/1999/xlink" x="0px" y="0px"
	 width="40px" height="40px" viewBox="0 0 40 40" enable-background="new 0 0 40 40" xml:space="preserve">
<path fill-rule="evenodd" clip-rule="evenodd" fill="#F37243" d="M19.803,0.099c10.937,0,19.802,8.866,19.802,19.803
	s-8.866,19.802-19.802,19.802C8.866,39.704,0,30.838,0,19.901S8.866,0.099,19.803,0.099z"/>
<path fill-rule="evenodd" clip-rule="evenodd" fill="#DA5222" d="M30.173,3.161c0,0-10.839,15.937-11.304,26.863
	c-0.184,4.326,1.271,7.78,8.511,8.178c-2.334,0.968-4.894,1.501-7.577,1.501c-4.765,0-9.137-1.683-12.554-4.487
	C15.62,22.866,30.173,3.161,30.173,3.161z"/>
<path fill="#FFFFFF" d="M7.653,20.303c-0.178-0.585-0.3-0.871-0.364-0.854c-0.626,0.151-1.247,0.573-1.862,1.266
	c-0.688,0.78-1.086,1.622-1.193,2.525c-0.057,0.481-0.008,0.914,0.146,1.297c0.012,0.033,0.166,0.308,0.461,0.827
	c0.165,0.3,0.231,0.582,0.2,0.846c-0.046,0.385-0.256,0.706-0.632,0.959c-0.296,0.148-0.59,0.295-0.882,0.441
	c-0.046,0.023-0.072,0.062-0.079,0.115c-0.017,0.145,0.076,0.51,0.28,1.095c0.203,0.584,0.345,0.868,0.426,0.848
	c0.363-0.088,0.777-0.323,1.243-0.704c0.431-0.362,0.819-0.771,1.163-1.229c0.162-0.208,0.312-0.514,0.45-0.915
	c0.122-0.363,0.2-0.698,0.237-1.004c0.062-0.524,0.017-0.99-0.135-1.397c-0.053-0.15-0.206-0.432-0.459-0.845
	c-0.167-0.275-0.239-0.518-0.213-0.729c0.039-0.331,0.166-0.61,0.381-0.838c0.18-0.196,0.389-0.322,0.627-0.38
	c0.113-0.027,0.224-0.033,0.332-0.019c0.072-0.117,0.112-0.205,0.12-0.266C7.913,21.235,7.831,20.888,7.653,20.303z"/>
<path fill="#FFFFFF" d="M14.202,19.231c-0.441-0.711-1.05-0.974-1.826-0.786c-0.921,0.223-1.714,0.859-2.379,1.909
	c-0.646,1.016-1.051,2.216-1.215,3.6c-0.168,1.421,0.001,2.482,0.506,3.184c0.491,0.694,1.217,0.924,2.178,0.692
	c1.038-0.251,1.85-0.831,2.436-1.738c0.072-0.111,0.11-0.188,0.115-0.229c0.018-0.15-0.041-0.478-0.175-0.984
	c-0.134-0.505-0.24-0.778-0.318-0.817c-0.17,0.182-0.341,0.363-0.511,0.544c-0.398,0.377-0.776,0.609-1.136,0.696
	c-0.299,0.072-0.556,0.053-0.77-0.06c-0.262-0.135-0.399-0.392-0.409-0.769c0.958-0.337,1.68-0.603,2.166-0.796
	c0.806-0.312,1.231-0.479,1.278-0.502c0.272-0.148,0.444-0.526,0.517-1.134C14.795,20.88,14.644,19.943,14.202,19.231z
	 M12.386,22.196c-0.646,0.291-1.119,0.473-1.418,0.544c-0.113,0.028-0.16-0.04-0.141-0.203c0.047-0.397,0.165-0.761,0.353-1.094
	c0.204-0.359,0.433-0.569,0.687-0.631c0.247-0.06,0.442,0.03,0.586,0.271c0.145,0.24,0.194,0.546,0.15,0.92
	C12.595,22.07,12.523,22.134,12.386,22.196L12.386,22.196z"/>
<path fill="#FFFFFF" d="M19.187,13.728l0.025-0.164c0.023-0.128-0.016-0.181-0.117-0.156l-2.163,0.523
	c-0.105,0.025-0.165,0.104-0.181,0.236c-0.004,0.036-0.006,0.086-0.006,0.151c-0.025,0.941-0.11,2.076-0.256,3.403
	c0.022-0.222-0.116,0.932-0.415,3.459c-0.063,0.529-0.162,1.33-0.296,2.4c-0.135,1.07-0.234,1.874-0.297,2.409
	c-0.029,0.241-0.044,0.37-0.046,0.388c-0.003,0.13,0.038,0.199,0.123,0.208c0.128,0.016,0.434-0.035,0.918-0.152
	c0.473-0.115,0.802-0.218,0.99-0.31c0.103-0.048,0.163-0.136,0.178-0.263c0.02-0.168,0.042-0.405,0.066-0.708
	c0.027-0.334,0.05-0.57,0.066-0.709c0.096-0.877,0.241-2.137,0.436-3.78C18.449,18.666,18.774,16.354,19.187,13.728L19.187,13.728z"
	/>
<path fill="#FFFFFF" d="M24.972,16.625c-0.442-0.711-1.05-0.974-1.826-0.787c-0.92,0.223-1.713,0.86-2.38,1.909
	c-0.646,1.016-1.05,2.215-1.214,3.6c-0.168,1.421,0,2.482,0.506,3.184c0.491,0.694,1.217,0.924,2.178,0.692
	c1.038-0.251,1.85-0.831,2.436-1.738c0.072-0.111,0.11-0.188,0.116-0.23c0.018-0.15-0.041-0.478-0.175-0.983
	c-0.134-0.505-0.241-0.778-0.318-0.817c-0.17,0.181-0.341,0.363-0.511,0.544c-0.398,0.377-0.776,0.609-1.136,0.696
	c-0.299,0.072-0.556,0.052-0.77-0.059c-0.263-0.135-0.399-0.392-0.41-0.77c0.958-0.337,1.68-0.603,2.166-0.796
	c0.805-0.312,1.231-0.479,1.277-0.502c0.272-0.148,0.444-0.525,0.517-1.134C25.566,18.274,25.414,17.337,24.972,16.625z
	 M23.156,19.591c-0.646,0.291-1.119,0.472-1.418,0.544c-0.113,0.027-0.16-0.04-0.141-0.203c0.047-0.397,0.165-0.762,0.353-1.094
	c0.204-0.359,0.432-0.57,0.687-0.631c0.246-0.06,0.441,0.03,0.585,0.27c0.144,0.24,0.194,0.546,0.15,0.92
	C23.365,19.464,23.292,19.528,23.156,19.591L23.156,19.591z"/>
<path fill="#FFFFFF" d="M30.977,16.9c0.049-0.135,0.166-0.52,0.352-1.155c0.196-0.662,0.298-1.031,0.308-1.11
	c0.009-0.078-0.034-0.146-0.128-0.206c-0.411-0.274-0.917-0.339-1.519-0.194c-0.885,0.214-1.67,0.841-2.355,1.881
	c-0.686,1.041-1.107,2.219-1.264,3.538c-0.157,1.33,0,2.371,0.472,3.122s1.153,1.019,2.041,0.804
	c0.239-0.058,0.559-0.197,0.961-0.417c0.521-0.284,0.794-0.54,0.821-0.769c0.027-0.229,0.036-0.681,0.025-1.357
	c-0.019-0.738-0.062-1.099-0.131-1.082c0.012-0.002-0.101,0.09-0.339,0.279c-0.238,0.189-0.446,0.305-0.624,0.349
	c-0.375,0.09-0.662,0.006-0.858-0.253c-0.197-0.259-0.263-0.666-0.197-1.22c0.063-0.536,0.221-0.99,0.474-1.364
	c0.252-0.374,0.558-0.604,0.917-0.691c0.149-0.036,0.339-0.035,0.568,0.003c0.229,0.038,0.345,0.057,0.349,0.056
	C30.885,17.106,30.927,17.035,30.977,16.9z"/>
<path fill="#FFFFFF" d="M36.179,18.833c-0.077,0.019-0.213,0.085-0.41,0.2c-0.196,0.115-0.344,0.184-0.445,0.208
	c-0.319,0.077-0.518,0-0.596-0.233c-0.054-0.174-0.051-0.514,0.009-1.02c0.017-0.138,0.04-0.352,0.07-0.64
	c0.033-0.282,0.059-0.496,0.076-0.641c0.031-0.265,0.078-0.405,0.138-0.419l0.454-0.11c0.081-0.02,0.215-0.047,0.404-0.084
	s0.324-0.065,0.404-0.085c0.117-0.028,0.183-0.105,0.198-0.232c0.017-0.145,0.04-0.354,0.069-0.631
	c0.028-0.275,0.051-0.486,0.068-0.63c0.016-0.138,0.051-0.349,0.104-0.63c0.053-0.282,0.088-0.492,0.104-0.631
	c0.01-0.09-0.029-0.125-0.118-0.103c-0.145,0.035-0.362,0.096-0.651,0.184c-0.289,0.088-0.504,0.148-0.646,0.183
	c-0.117,0.028-0.158-0.105-0.123-0.4c0.029-0.247,0.086-0.617,0.169-1.111c0.084-0.494,0.14-0.861,0.169-1.102
	c0.011-0.09-0.034-0.129-0.133-0.117c-0.408,0.028-0.712,0.046-0.913,0.054c-0.088,0.01-0.242,0.003-0.462-0.019
	c-0.193-0.024-0.345-0.022-0.454,0.004c-0.089,0.021-0.175,0.381-0.257,1.079c0.004-0.036-0.031,0.333-0.107,1.104
	c-0.05,0.492-0.101,0.855-0.152,1.089c-0.026,0.117-0.112,0.197-0.258,0.238c-0.26,0.075-0.397,0.172-0.411,0.292
	c-0.015,0.126-0.033,0.318-0.053,0.574c-0.021,0.256-0.038,0.448-0.053,0.574c-0.011,0.096-0.034,0.245-0.067,0.446
	c-0.034,0.201-0.056,0.35-0.067,0.446c-0.02,0.163,0.047,0.226,0.201,0.188c0.016-0.003,0.043-0.013,0.08-0.028
	c0.037-0.009,0.063-0.016,0.079-0.019c0.206-0.05,0.293,0.058,0.262,0.323c-0.047,0.396-0.127,0.997-0.242,1.799
	c-0.115,0.803-0.195,1.402-0.243,1.8c-0.157,1.33,0.348,1.854,1.515,1.572c0.634-0.154,1.237-0.507,1.808-1.061
	c0.12-0.117,0.194-0.202,0.225-0.256c0.03-0.054,0.055-0.167,0.076-0.338c0.02-0.172,0.067-0.445,0.141-0.819
	c0.074-0.375,0.122-0.652,0.143-0.833C36.298,18.869,36.264,18.813,36.179,18.833L36.179,18.833z"/>
</svg>
